<svg width="22" height="22" viewBox="0 0 22 22" fill="none" xmlns="http://www.w3.org/2000/svg">
<rect x="3" y="3" width="16" height="16" fill="#FCFCFC"/>
<path d="M18.9487 5.8459V3.09375C18.9487 2.71348 18.6415 2.40625 18.2612 2.40625H3.73781C3.35753 2.40625 3.05031 2.71348 3.05031 3.09375V5.8459C2.69152 5.86738 2.40578 6.16602 2.40578 6.53125V9.36074C2.4044 9.88076 2.50969 10.3955 2.71515 10.8732C2.80753 11.0924 2.9214 11.2986 3.05031 11.4941V18.9062C3.05031 19.2844 3.35753 19.5938 3.73781 19.5938H18.2612C18.6415 19.5938 18.9487 19.2865 18.9487 18.9062V11.4941C19.0797 11.2981 19.1919 11.0903 19.2839 10.8732C19.488 10.3941 19.5933 9.88496 19.5933 9.36074V6.53125C19.5933 6.16602 19.3075 5.86738 18.9487 5.8459ZM4.59718 3.95312H17.4019V5.84375H4.59718V3.95312ZM12.3745 18.049H9.62453V15.8125H12.3745V18.049ZM17.4019 18.049H13.7495V15.125C13.7495 14.7447 13.4423 14.4375 13.062 14.4375H8.93703C8.55675 14.4375 8.24953 14.7447 8.24953 15.125V18.049H4.59718V12.8455C4.65949 12.8756 4.72394 12.9057 4.79054 12.9314C5.26964 13.1334 5.77882 13.2344 6.30304 13.2344C6.82726 13.2344 7.33429 13.1334 7.81554 12.9314C8.11203 12.8068 8.39132 12.6479 8.64699 12.4566C8.65128 12.4545 8.65558 12.4545 8.65988 12.4566C8.91634 12.6487 9.19561 12.8082 9.49132 12.9314C9.97042 13.1334 10.4796 13.2344 11.0038 13.2344C11.528 13.2344 12.0351 13.1334 12.5163 12.9314C12.8128 12.8068 13.0921 12.6479 13.3478 12.4566C13.3521 12.4545 13.3564 12.4545 13.3607 12.4566C13.6171 12.6487 13.8964 12.8082 14.1921 12.9314C14.6712 13.1334 15.1804 13.2344 15.7046 13.2344C16.2288 13.2344 16.7359 13.1334 17.2171 12.9314C17.2816 12.9035 17.346 12.8756 17.4105 12.8455V18.049H17.4019ZM18.0464 9.36074C18.0464 10.6455 16.9937 11.6875 15.6982 11.6875C14.8216 11.6875 14.0568 11.2127 13.6528 10.508C13.5905 10.4006 13.4788 10.334 13.3542 10.334H13.3413C13.2189 10.334 13.105 10.4006 13.0427 10.508C12.8366 10.8675 12.5389 11.166 12.1801 11.3731C11.8212 11.5803 11.4139 11.6888 10.9995 11.6875C10.1251 11.6875 9.36242 11.2148 8.95851 10.5123C8.89406 10.4027 8.77804 10.334 8.65128 10.334C8.52453 10.334 8.40636 10.4027 8.34406 10.5123C8.13673 10.8704 7.83873 11.1676 7.48005 11.3739C7.12137 11.5802 6.71467 11.6883 6.30089 11.6875C5.00538 11.6875 3.95265 10.6455 3.95265 9.36074V7.40137C3.95265 7.39492 3.95695 7.39062 3.96339 7.39062H18.0357C18.0421 7.39062 18.0464 7.39492 18.0464 7.40137V9.36074V9.36074Z" fill="#646464"/>
</svg>
