<svg width="27" height="24" viewBox="0 0 27 24" fill="none" xmlns="http://www.w3.org/2000/svg">
<path d="M23.5065 2.88046C22.9106 2.2843 22.2031 1.81138 21.4244 1.48873C20.6457 1.16607 19.8111 1 18.9682 1C18.1253 1 17.2906 1.16607 16.5119 1.48873C15.7332 1.81138 15.0257 2.2843 14.4298 2.88046L13.1932 4.11713L11.9565 2.88046C10.7529 1.67682 9.12038 1.00062 7.41817 1.00062C5.71597 1.00062 4.08348 1.67682 2.87984 2.88046C1.6762 4.0841 1 5.71659 1 7.4188C1 9.121 1.6762 10.7535 2.87984 11.9571L4.11651 13.1938L13.1932 22.2705L22.2698 13.1938L23.5065 11.9571C24.1027 11.3612 24.5756 10.6537 24.8982 9.87504C25.2209 9.09634 25.387 8.2617 25.387 7.4188C25.387 6.57589 25.2209 5.74125 24.8982 4.96255C24.5756 4.18385 24.1027 3.47635 23.5065 2.88046V2.88046Z" stroke="#FF679E" stroke-width="2" stroke-linecap="round" stroke-linejoin="round"/>
</svg>
