<svg width="28" height="24" viewBox="0 0 28 24" fill="none" xmlns="http://www.w3.org/2000/svg">
<path d="M24.3151 3.37839C23.7192 2.78223 23.0117 2.30931 22.233 1.98665C21.4543 1.664 20.6197 1.49792 19.7768 1.49792C18.9339 1.49792 18.0992 1.664 17.3205 1.98665C16.5418 2.30931 15.8343 2.78223 15.2384 3.37839L14.0018 4.61505L12.7651 3.37839C11.5615 2.17475 9.92897 1.49855 8.22677 1.49855C6.52456 1.49855 4.89207 2.17475 3.68843 3.37839C2.48479 4.58203 1.80859 6.21452 1.80859 7.91672C1.80859 9.61893 2.48479 11.2514 3.68843 12.4551L4.9251 13.6917L14.0018 22.7684L23.0784 13.6917L24.3151 12.4551C24.9113 11.8592 25.3842 11.1517 25.7068 10.373C26.0295 9.59427 26.1956 8.75962 26.1956 7.91672C26.1956 7.07382 26.0295 6.23918 25.7068 5.46047C25.3842 4.68177 24.9113 3.97427 24.3151 3.37839V3.37839Z" fill="#FF679E" stroke="#FF679E" stroke-width="2" stroke-linecap="round" stroke-linejoin="round"/>
</svg>
