

<svg width="59" height="56" viewBox="0 0 59 56" fill="none" xmlns="http://www.w3.org/2000/svg">
<path d="M57.3333 28C57.3333 42.8736 44.7616 55 29.1667 55C13.5718 55 1 42.8736 1 28C1 13.1264 13.5718 1 29.1667 1C44.7616 1 57.3333 13.1264 57.3333 28Z" fill="white" stroke="#E5E5E5" stroke-width="2"/>
<path fill-rule="evenodd" clip-rule="evenodd" d="M39.56 27.25C39.56 26.47 39.49 25.72 39.36 25H29V29.255H34.92C34.665 30.63 33.89 31.795 32.725 32.575V35.335H36.28C38.36 33.42 39.56 30.6 39.56 27.25Z" fill="#4285F4"/>
<path fill-rule="evenodd" clip-rule="evenodd" d="M28.9999 38.0001C31.9699 38.0001 34.4599 37.0151 36.2799 35.3351L32.7249 32.5751C31.7399 33.2351 30.4799 33.6251 28.9999 33.6251C26.1349 33.6251 23.7099 31.6901 22.8449 29.0901H19.1699V31.9401C20.9799 35.5351 24.6999 38.0001 28.9999 38.0001Z" fill="#34A853"/>
<path fill-rule="evenodd" clip-rule="evenodd" d="M22.845 29.09C22.625 28.4301 22.5 27.7251 22.5 27.0001C22.5 26.2751 22.625 25.5701 22.845 24.9101V22.0601H19.17C18.425 23.5451 18 25.2251 18 27.0001C18 28.775 18.425 30.455 19.17 31.94L22.845 29.09Z" fill="#FBBC05"/>
<path fill-rule="evenodd" clip-rule="evenodd" d="M28.9999 20.375C30.6149 20.375 32.0649 20.93 33.2049 22.02L36.3599 18.865C34.4549 17.09 31.9649 16 28.9999 16C24.6999 16 20.9799 18.465 19.1699 22.06L22.8449 24.91C23.7099 22.31 26.1349 20.375 28.9999 20.375Z" fill="#EA4335"/>
</svg>
