<svg width="59" height="56" viewBox="0 0 59 56" fill="none" xmlns="http://www.w3.org/2000/svg">
<ellipse cx="29.1667" cy="28" rx="29.1667" ry="28" fill="#FEE500"/>
<path d="M28.99 15C21.2455 15 15 19.9549 15 25.9703C15 29.8748 17.5981 33.2937 21.4954 35.246L20.1763 40.1316C20.1514 40.2048 20.1476 40.2834 20.1653 40.3587C20.1829 40.4339 20.2213 40.5028 20.2762 40.5577C20.3563 40.6277 20.4593 40.6664 20.566 40.6667C20.6545 40.6596 20.7385 40.6249 20.8059 40.5676L26.4818 36.7721C27.3196 36.8868 28.1642 36.9463 29.01 36.9504C36.7445 36.9504 43 31.9955 43 25.9703C43 19.945 36.7245 15 28.99 15Z" fill="black"/>
</svg>
