<svg width="70" height="70" viewBox="0 0 70 70" fill="none" xmlns="http://www.w3.org/2000/svg">
<path d="M3.11822 70.0001C2.47977 69.646 1.77747 69.3636 1.21427 68.9182C0.32956 68.2165 0.0194553 67.2107 0.0171751 66.1397C0.0080544 60.6521 0.0126148 55.1667 0.0148949 49.6792C0.0148949 49.5814 0.0490976 49.4815 0.0833003 49.299C0.375163 49.4424 0.614582 49.551 0.84488 49.6748C5.04953 51.9428 9.36363 52.1405 13.6732 50.0724C15.0116 49.4315 16.1973 48.4387 17.326 47.4742C18.685 46.3141 19.9095 45.0106 21.2616 43.7028C22.5978 44.9845 23.8428 46.1902 25.1014 47.3829C29.3973 51.4562 35.4671 52.5381 40.9213 50.0528C42.2962 49.4272 43.5321 48.4496 44.6882 47.4763C46.0585 46.3249 47.2739 45.0041 48.6192 43.6963C49.9964 45.015 51.2915 46.2511 52.5821 47.4894C54.591 49.4228 56.9532 50.7502 59.7807 51.2412C63.1097 51.819 66.2472 51.3128 69.1682 49.6574C69.3346 49.5619 69.5056 49.4728 69.6789 49.3881C69.7222 49.3663 69.7815 49.3794 69.948 49.3685C69.948 49.6531 69.948 49.9312 69.948 50.2071C69.948 55.1906 69.8727 60.1742 69.9822 65.1556C70.0323 67.4931 69.2981 69.1746 66.8994 70.0001H3.11822V70.0001Z" fill="#E1E1E1"/>
<path d="M38.8402 17.8765C39.2346 17.8982 39.5539 17.9286 39.8754 17.9286C45.8563 17.9308 51.8372 17.9308 57.8158 17.9308C62.4468 17.9308 66.0199 19.7534 68.4278 23.5487C69.5017 25.2432 69.9828 27.1158 69.992 29.0819C70.0034 31.2261 70.0216 33.3746 69.8939 35.5145C69.6727 39.2271 65.785 42.2555 61.8928 41.934C59.811 41.7624 58.1259 40.9216 56.6894 39.5443C54.277 37.235 51.8691 34.9214 49.2401 32.3948C48.9163 32.0842 48.3941 32.145 48.1159 32.4926C48.0931 32.5208 48.068 32.5469 48.043 32.573C45.5918 34.9214 43.1315 37.2633 40.6575 39.5899C37.9965 42.0904 34.428 42.6009 31.1696 40.9021C30.4514 40.5284 29.8038 39.9875 29.2178 39.4335C26.7757 37.1286 24.3656 34.7954 21.8962 32.4231C21.6134 32.1515 21.1551 32.1472 20.8655 32.41C20.8062 32.4644 20.747 32.5187 20.69 32.5751C18.2068 34.9322 15.7374 37.3002 13.2429 39.6464C10.4862 42.2381 6.96556 42.7313 3.72315 40.9086C1.58662 39.7072 0.250438 37.8715 0.143269 35.4927C0.0201397 32.7728 -0.141753 30.0073 0.229916 27.3244C1.00974 21.7065 5.92124 17.959 12.1233 17.9373C18.1042 17.9156 24.0851 17.9329 30.0638 17.9329C30.3875 17.9329 30.7113 17.9329 31.1218 17.9329" fill="#E1E1E1"/>
<ellipse cx="35.4891" cy="7.11337" rx="7.52818" ry="7.11337" fill="#E1E1E1"/>
</svg>
