<svg width="70" height="70" viewBox="0 0 70 70" fill="none" xmlns="http://www.w3.org/2000/svg">
<path d="M0 37.053C0 35.685 0 34.3187 0 32.9507C0.102687 32.0963 0.186547 31.2386 0.309771 30.3876C1.67721 20.9862 6.07049 13.3003 13.5204 7.41908C24.2392 -1.04067 39.0192 -2.37102 51.1379 3.9708C52.2795 4.56834 53.3799 5.24464 54.6686 5.98258C56.6043 4.03928 58.557 2.08058 60.4362 0.193788C62.7689 2.48294 65.206 4.72072 67.4668 7.12459C70.8692 10.7424 70.8212 16.3137 67.4617 19.9692C67.0064 20.4657 66.7206 20.8458 67.0886 21.5375C67.2768 21.8919 67.2392 22.3816 67.246 22.8113C67.2632 24.1554 67.2426 25.4994 67.2546 26.8452C67.2649 27.8981 67.2854 28.9443 66.6282 29.862C66.5341 29.9921 66.5512 30.2113 66.5443 30.391C66.416 33.829 66.2876 37.267 66.1678 40.7051C65.8871 48.8566 65.6253 57.0099 65.3104 65.1597C65.2813 65.9268 65.0229 66.7315 64.6891 67.4318C63.9806 68.9179 62.6354 69.6165 61.1002 70C60.645 70 60.1898 70 59.7328 70C59.5839 69.9521 59.435 69.8973 59.2827 69.8562C57.0407 69.2552 55.5877 67.478 55.5038 65.158C55.3053 59.6723 55.129 54.1848 54.9408 48.6974C54.7474 43.0062 54.5523 37.3133 54.3554 31.6221C54.3435 31.2762 54.3109 30.9304 54.2819 30.4938C51.4922 32.449 49.358 34.8135 47.7869 37.666C45.4953 41.8282 44.6995 46.2696 45.3396 50.9865C45.6528 53.2928 46.4691 55.4261 47.3146 57.5646C49.4624 63.0024 45.8804 68.9487 40.0837 69.6079C38.9781 69.7329 37.8742 69.8682 36.7687 69.9983C35.4936 69.9983 34.2169 69.9983 32.9419 69.9983C32.0416 69.8921 31.138 69.7997 30.2412 69.6747C23.2671 68.7005 17.1076 65.9114 11.85 61.2303C5.75901 55.8114 1.94249 49.0809 0.539105 41.0235C0.309771 39.7086 0.17799 38.3765 0 37.053ZM51.7985 9.10897C51.7951 9.10555 51.7712 9.06446 51.7335 9.04048C43.5032 3.91601 34.7047 2.65244 25.4902 5.64015C11.2527 10.2595 2.57915 23.9636 4.37274 38.8217C5.44924 47.7283 9.76379 54.832 16.9946 60.0849C23.6727 64.9354 31.1945 66.6442 39.3615 65.5878C41.2646 65.3412 42.6851 64.4372 43.4553 62.624C44.0902 61.1276 43.8249 59.6928 43.1866 58.2735C41.8705 55.3542 41.1089 52.2861 41.0421 49.0929C40.8504 39.8592 44.477 32.4559 52.0262 27.1208C53.2875 26.2288 53.7325 25.3847 53.611 23.9482C53.5357 23.0613 53.6794 22.1367 53.8523 21.255C53.9361 20.8304 53.9533 20.5907 53.6315 20.2551C51.4015 17.9437 50.4876 15.1786 51.0027 11.9991C51.1585 11.0437 51.5127 10.1226 51.7985 9.10897ZM60.6998 5.92265C59.091 7.42421 57.5045 8.70148 56.1661 10.203C54.364 12.2268 54.6019 15.3412 56.505 17.3461C58.2832 19.2175 61.3997 19.5274 63.5014 18.0396C65.7879 16.4199 66.7086 13.3192 65.1889 11.0608C63.8916 9.12952 62.1203 7.51667 60.6998 5.92265ZM58.4715 31.3361C58.4715 31.5827 58.4663 31.7642 58.4715 31.944C58.8446 42.9103 59.2211 53.8766 59.5907 64.843C59.6096 65.4097 59.7824 65.8754 60.4174 65.8737C61.0523 65.872 61.2235 65.408 61.2406 64.8396C61.2902 63.0418 61.3552 61.244 61.4169 59.4463C61.7335 50.2315 62.0518 41.0167 62.3667 31.8036C62.3718 31.6546 62.3479 31.5039 62.3359 31.3361C61.0386 31.3361 59.7944 31.3361 58.4715 31.3361ZM57.7236 23.1418C57.7236 24.5012 57.7236 25.8281 57.7236 27.1636C59.5462 27.1636 61.3261 27.1636 63.0992 27.1636C63.0992 25.7905 63.0992 24.4636 63.0992 23.1418C61.2817 23.1418 59.5172 23.1418 57.7236 23.1418Z" fill="#E1E1E1"/>
<path d="M32.5592 10.1249C35.9102 10.1489 38.6879 12.9414 38.681 16.2801C38.6742 19.6256 35.8896 22.4113 32.5455 22.4199C29.1808 22.4284 26.3466 19.5777 26.3911 16.2304C26.4339 12.866 29.227 10.1026 32.5592 10.1249ZM34.5804 16.2904C34.5907 15.174 33.6699 14.2375 32.554 14.2272C31.4382 14.2169 30.5003 15.1381 30.49 16.2544C30.4798 17.3707 31.4005 18.3073 32.5164 18.3175C33.6323 18.3278 34.5701 17.4067 34.5804 16.2904Z" fill="#E1E1E1"/>
<path d="M25.9674 25.683C25.9879 29.0165 23.2188 31.8142 19.861 31.8519C16.5117 31.8895 13.6638 29.0525 13.6758 25.6933C13.6895 22.346 16.4723 19.5637 19.8165 19.5586C23.1538 19.5518 25.9452 22.3323 25.9674 25.683ZM21.8668 25.6813C21.8531 24.5649 20.9118 23.6472 19.7959 23.6609C18.6801 23.6746 17.761 24.6163 17.7747 25.7309C17.7884 26.8472 18.7297 27.765 19.8456 27.7513C20.9631 27.7359 21.8805 26.7959 21.8668 25.6813Z" fill="#E1E1E1"/>
<path d="M23.0956 42.2029C23.0066 45.5878 20.1878 48.3324 16.8762 48.257C13.4961 48.1817 10.7441 45.3686 10.8057 42.0522C10.869 38.6501 13.734 35.861 17.0593 35.9655C20.4548 36.0734 23.1829 38.8916 23.0956 42.2029ZM16.9207 40.0661C15.8048 40.0832 14.8892 41.0266 14.9046 42.1412C14.92 43.2558 15.8647 44.1736 16.9789 44.1581C18.0947 44.141 19.0104 43.1993 18.995 42.083C18.9813 40.9667 18.0366 40.049 16.9207 40.0661Z" fill="#E1E1E1"/>
<path d="M34.9863 53.5526C34.8956 56.9375 32.0751 59.6821 28.7652 59.605C25.3834 59.5263 22.6331 56.7132 22.6964 53.3985C22.7614 49.9947 25.6298 47.2073 28.9534 47.3135C32.3506 47.4231 35.0753 50.2413 34.9863 53.5526ZM30.8874 53.4498C30.8839 52.3335 29.9512 51.4072 28.8336 51.4124C27.7178 51.4175 26.7919 52.3489 26.7953 53.4653C26.7987 54.5816 27.7332 55.5079 28.849 55.5027C29.9666 55.4993 30.8925 54.5679 30.8874 53.4498Z" fill="#E1E1E1"/>
</svg>
