<svg width="16" height="16" viewBox="0 0 16 16" fill="none" xmlns="http://www.w3.org/2000/svg">
<path fill-rule="evenodd" clip-rule="evenodd" d="M5.52722 2.86194C5.65224 2.73696 5.82178 2.66675 5.99856 2.66675C6.17533 2.66675 6.34487 2.73696 6.46989 2.86194L11.1366 7.52861C11.2615 7.65362 11.3317 7.82316 11.3317 7.99994C11.3317 8.17672 11.2615 8.34625 11.1366 8.47127L6.46989 13.1379C6.34415 13.2594 6.17575 13.3266 6.00095 13.3251C5.82616 13.3235 5.65895 13.2534 5.53534 13.1298C5.41174 13.0062 5.34163 12.839 5.34011 12.6642C5.33859 12.4894 5.40578 12.321 5.52722 12.1953L9.72256 7.99994L5.52722 3.80461C5.40224 3.67959 5.33203 3.51005 5.33203 3.33327C5.33203 3.1565 5.40224 2.98696 5.52722 2.86194V2.86194Z" fill="#ff679e"/>
</svg>
