<svg width="80" height="80" viewBox="0 0 80 80" fill="none" xmlns="http://www.w3.org/2000/svg">
<circle cx="40" cy="40" r="40" fill="#FF679E"/>
<path d="M20.7968 55.9V57.16H29.5568V55.9H20.7968ZM19.4918 65.05V66.34H31.8818V65.05H19.4918ZM28.7168 55.9V57.385C28.7168 59.155 28.7168 61.165 28.1918 63.88L29.7668 64.03C30.2768 61.135 30.2768 59.215 30.2768 57.385V55.9H28.7168ZM43.0256 54.52V68.26H44.6006V54.52H43.0256ZM34.0556 63.715V65.005H35.2256C37.6406 65.005 39.6806 64.915 42.0506 64.51L41.8856 63.235C39.5756 63.625 37.5806 63.715 35.2256 63.715H34.0556ZM34.0256 55.75V57.025H38.8256V59.575H34.0556V64.195H35.6456V60.835H40.4156V55.75H34.0256ZM56.8244 54.535V68.245H58.3994V54.535H56.8244ZM52.8044 55.99V56.26C52.8044 59.92 51.1394 62.635 47.1944 64.54L48.0194 65.8C52.7294 63.505 54.3494 60.055 54.3494 55.99H52.8044ZM47.8694 55.99V57.25H53.5094V55.99H47.8694Z" fill="white"/>
<g clip-path="url(#clip0_1830_5135)">
<path d="M18.1328 30.1145C18.1328 29.3719 18.1328 28.6302 18.1328 27.8875C18.1886 27.4237 18.2341 26.9581 18.301 26.4961C19.0433 21.3925 21.4282 17.2202 25.4725 14.0275C31.2912 9.43506 39.3147 8.71288 45.8934 12.1556C46.5131 12.48 47.1105 12.8471 47.8101 13.2477C48.8608 12.1928 49.9209 11.1295 50.941 10.1052C52.2074 11.3479 53.5304 12.5627 54.7577 13.8676C56.6046 15.8316 56.5786 18.856 54.7549 20.8404C54.5077 21.1099 54.3526 21.3163 54.5523 21.6918C54.6545 21.8842 54.6341 22.15 54.6378 22.3833C54.6471 23.1129 54.6359 23.8425 54.6424 24.5731C54.648 25.1447 54.6592 25.7126 54.3024 26.2108C54.2513 26.2814 54.2606 26.4004 54.2569 26.498C54.1872 28.3643 54.1175 30.2307 54.0525 32.097C53.9001 36.5222 53.758 40.9482 53.587 45.3724C53.5712 45.7888 53.4309 46.2257 53.2498 46.6058C52.8651 47.4126 52.1349 47.7918 51.3015 48C51.0544 48 50.8072 48 50.5592 48C50.4784 47.974 50.3975 47.9442 50.3148 47.9219C49.0978 47.5957 48.309 46.6309 48.2635 45.3715C48.1557 42.3935 48.06 39.4146 47.9578 36.4357C47.8528 33.3462 47.7469 30.2558 47.6401 27.1663C47.6336 26.9785 47.6159 26.7908 47.6001 26.5538C46.0857 27.6152 44.9272 28.8988 44.0743 30.4472C42.8303 32.7068 42.3982 35.1178 42.7457 37.6784C42.9157 38.9304 43.3589 40.0885 43.8179 41.2494C44.9838 44.2013 43.0393 47.4293 39.8925 47.7872C39.2924 47.855 38.6931 47.9284 38.0929 47.9991C37.4008 47.9991 36.7077 47.9991 36.0155 47.9991C35.5268 47.9414 35.0363 47.8913 34.5495 47.8234C30.7635 47.2945 27.4198 45.7805 24.5657 43.2393C21.2591 40.2976 19.1873 36.6439 18.4255 32.2699C18.301 31.5561 18.2294 30.833 18.1328 30.1145ZM46.252 14.9449C46.2502 14.943 46.2372 14.9207 46.2167 14.9077C41.7488 12.1258 36.9725 11.4399 31.9704 13.0618C24.2414 15.5695 19.5329 23.0088 20.5066 31.0746C21.091 35.9097 23.4332 39.766 27.3585 42.6175C30.9837 45.2507 35.067 46.1783 39.5005 45.6048C40.5336 45.471 41.3047 44.9802 41.7228 43.9959C42.0675 43.1836 41.9235 42.4047 41.5769 41.6342C40.8625 40.0494 40.4491 38.3839 40.4128 36.6504C40.3088 31.6379 42.2775 27.6189 46.3756 24.7227C47.0603 24.2385 47.3019 23.7803 47.2359 23.0005C47.195 22.519 47.2731 22.0171 47.3669 21.5384C47.4124 21.3079 47.4217 21.1778 47.2471 20.9956C46.0365 19.7409 45.5404 18.2398 45.82 16.5138C45.9046 15.9952 46.0969 15.4951 46.252 14.9449ZM51.0841 13.2152C50.2108 14.0303 49.3495 14.7237 48.623 15.5388C47.6447 16.6374 47.7738 18.3281 48.807 19.4165C49.7723 20.4324 51.4641 20.6006 52.605 19.7929C53.8462 18.9136 54.3461 17.2304 53.5211 16.0044C52.8168 14.956 51.8552 14.0805 51.0841 13.2152ZM49.8745 27.0111C49.8745 27.1449 49.8717 27.2434 49.8745 27.341C50.077 33.2942 50.2814 39.2473 50.4821 45.2005C50.4923 45.5081 50.5861 45.7609 50.9308 45.76C51.2755 45.7591 51.3684 45.5072 51.3777 45.1986C51.4046 44.2227 51.4399 43.2468 51.4734 42.2708C51.6453 37.2685 51.8181 32.2662 51.989 27.2648C51.9918 27.1839 51.9788 27.1021 51.9723 27.0111C51.2681 27.0111 50.5926 27.0111 49.8745 27.0111ZM49.4685 22.5627C49.4685 23.3007 49.4685 24.021 49.4685 24.746C50.4579 24.746 51.4242 24.746 52.3867 24.746C52.3867 24.0005 52.3867 23.2802 52.3867 22.5627C51.4 22.5627 50.4421 22.5627 49.4685 22.5627Z" fill="white"/>
<path d="M35.8057 15.496C37.6248 15.5091 39.1327 17.025 39.129 18.8374C39.1252 20.6536 37.6136 22.1658 35.7982 22.1705C33.9717 22.1751 32.4332 20.6276 32.4573 18.8105C32.4805 16.9841 33.9968 15.484 35.8057 15.496ZM36.9029 18.843C36.9085 18.237 36.4086 17.7286 35.8029 17.723C35.1971 17.7174 34.688 18.2175 34.6824 18.8235C34.6769 19.4295 35.1767 19.9379 35.7824 19.9435C36.3882 19.9491 36.8973 19.449 36.9029 18.843Z" fill="white"/>
<path d="M32.2312 23.942C32.2423 25.7516 30.7391 27.2704 28.9163 27.2908C27.0981 27.3113 25.5521 25.7711 25.5586 23.9476C25.566 22.1305 27.0767 20.6201 28.8921 20.6173C30.7038 20.6136 32.2191 22.123 32.2312 23.942ZM30.0051 23.941C29.9977 23.335 29.4867 22.8369 28.881 22.8443C28.2752 22.8517 27.7763 23.3629 27.7837 23.968C27.7912 24.574 28.3022 25.0722 28.9079 25.0648C29.5146 25.0564 30.0126 24.5461 30.0051 23.941Z" fill="white"/>
<path d="M30.6722 32.9104C30.6239 34.7479 29.0937 36.2378 27.296 36.1969C25.461 36.156 23.9671 34.6289 24.0006 32.8286C24.0349 30.9818 25.5902 29.4677 27.3954 29.5244C29.2386 29.5829 30.7196 31.1128 30.6722 32.9104ZM27.3201 31.7504C26.7144 31.7597 26.2173 32.2718 26.2257 32.8769C26.234 33.482 26.7469 33.9802 27.3517 33.9718C27.9575 33.9625 28.4545 33.4513 28.4461 32.8453C28.4387 32.2393 27.9259 31.7411 27.3201 31.7504Z" fill="white"/>
<path d="M37.1254 39.0716C37.0761 40.9092 35.545 42.3991 33.7482 42.3573C31.9123 42.3145 30.4193 40.7874 30.4537 38.988C30.489 37.1402 32.0461 35.6271 33.8504 35.6847C35.6946 35.7442 37.1737 37.2741 37.1254 39.0716ZM34.9002 39.0159C34.8984 38.4099 34.392 37.907 33.7854 37.9098C33.1796 37.9126 32.677 38.4182 32.6788 39.0242C32.6807 39.6302 33.188 40.1331 33.7937 40.1303C34.4004 40.1284 34.903 39.6228 34.9002 39.0159Z" fill="white"/>
</g>
<defs>
<clipPath id="clip0_1830_5135">
<rect width="40" height="40" fill="white" transform="translate(18.1328 10)"/>
</clipPath>
</defs>
</svg>
