<svg width="80" height="80" viewBox="0 0 80 80" fill="none" xmlns="http://www.w3.org/2000/svg">
<circle cx="40" cy="40" r="40" fill="#FF679E"/>
<path d="M48.526 16.5236C48.9273 16.1223 49.4037 15.804 49.9279 15.5869C50.4522 15.3697 51.0141 15.2579 51.5816 15.2579C52.1491 15.2579 52.711 15.3697 53.2352 15.5869C53.7595 15.804 54.2359 16.1223 54.6372 16.5236C55.0384 16.9248 55.3567 17.4012 55.5739 17.9255C55.791 18.4498 55.9028 19.0117 55.9028 19.5791C55.9028 20.1466 55.791 20.7085 55.5739 21.2328C55.3567 21.7571 55.0384 22.2334 54.6372 22.6347L34.0122 43.2597L25.6094 45.5514L27.901 37.1486L48.526 16.5236Z" stroke="white" stroke-width="2.34391" stroke-linecap="round" stroke-linejoin="round"/>
<path d="M21.5368 54.105V55.35H30.2968V54.105H21.5368ZM19.9918 58.515V59.775H32.4118V58.515H19.9918ZM29.3218 54.105V55.005C29.3218 55.965 29.3218 57.12 28.9618 58.74L30.5068 58.89C30.8668 57.255 30.8668 55.995 30.8668 55.005V54.105H29.3218ZM21.4168 60.945V62.175H29.3068V63.405H21.4318V66.27H23.0068V64.59H30.8668V60.945H21.4168ZM21.4318 65.88V67.11H31.2268V65.88H21.4318ZM37.0156 54.945V55.935C37.0156 57.795 35.8156 59.565 33.6556 60.3L34.4806 61.515C36.9106 60.69 38.3056 58.485 38.3056 55.935V54.945H37.0156ZM37.3156 54.945V55.935C37.3156 58.335 38.6506 60.45 41.0506 61.26L41.8456 60.03C39.7456 59.34 38.5906 57.66 38.5906 55.935V54.945H37.3156ZM34.1056 54.42V55.695H41.4706V54.42H34.1056ZM42.9106 53.535V61.785H44.4856V53.535H42.9106ZM44.0506 57.015V58.32H46.4206V57.015H44.0506ZM35.4706 62.46V63.735H42.9106V67.245H44.4856V62.46H35.4706ZM50.9194 54.285V55.605C50.9194 57.615 49.7194 59.46 47.5144 60.195L48.3394 61.47C50.8444 60.585 52.2244 58.305 52.2244 55.605V54.285H50.9194ZM51.2194 54.285V55.545C51.2194 58.11 52.5244 60.21 54.8794 61.065L55.7194 59.835C53.6344 59.145 52.4944 57.435 52.4944 55.545V54.285H51.2194ZM57.3694 53.535V61.605H58.9444V53.535H57.3694ZM54.3694 61.995C51.5044 61.995 49.7494 62.955 49.7494 64.605C49.7494 66.27 51.5044 67.23 54.3694 67.23C57.2344 67.23 58.9894 66.27 58.9894 64.605C58.9894 62.955 57.2344 61.995 54.3694 61.995ZM54.3694 63.225C56.3194 63.225 57.4294 63.72 57.4294 64.605C57.4294 65.505 56.3194 66 54.3694 66C52.4344 66 51.3094 65.505 51.3094 64.605C51.3094 63.72 52.4344 63.225 54.3694 63.225ZM54.5944 56.25V57.54H57.6394V56.25H54.5944Z" fill="white"/>
</svg>
