<svg width="67" height="67" viewBox="0 0 67 67" fill="none" xmlns="http://www.w3.org/2000/svg">
<circle cx="33.5" cy="33.5" r="33.5" fill="#FF679E"/>
<path d="M38.8137 15.5162C39.1215 15.2084 39.4869 14.9642 39.8891 14.7976C40.2913 14.631 40.7223 14.5453 41.1576 14.5453C41.5929 14.5453 42.024 14.631 42.4262 14.7976C42.8283 14.9642 43.1937 15.2084 43.5015 15.5162C43.8094 15.824 44.0535 16.1894 44.2201 16.5916C44.3867 16.9937 44.4724 17.4248 44.4724 17.8601C44.4724 18.2954 44.3867 18.7264 44.2201 19.1286C44.0535 19.5308 43.8094 19.8962 43.5015 20.204L27.6801 36.0254L21.2344 37.7833L22.9923 31.3376L38.8137 15.5162Z" stroke="white" stroke-width="2.34391" stroke-linecap="round" stroke-linejoin="round"/>
<path d="M19.9239 43.4833V44.198H26.1319V43.4833H19.9239ZM18.8146 46.662V47.3873H27.5506V46.662H18.8146ZM25.5559 43.4833V44.102C25.5559 44.7847 25.5559 45.6167 25.2999 46.79L26.1639 46.886C26.4199 45.6913 26.4199 44.7953 26.4199 44.102V43.4833H25.5559ZM19.8386 48.3367V49.0513H25.5773V50.1073H19.8599V52.134H20.7453V50.79H26.4519V48.3367H19.8386ZM19.8599 51.8993V52.614H26.6973V51.8993H19.8599ZM30.9951 44.07V44.8487C30.9951 46.2247 30.0351 47.462 28.5738 47.974L29.0431 48.6673C30.6538 48.0913 31.7204 46.6193 31.7204 44.8487V44.07H30.9951ZM31.1551 44.07V44.838C31.1551 46.502 32.1791 47.9207 33.7684 48.4753L34.2271 47.782C32.8084 47.302 31.8804 46.118 31.8804 44.838V44.07H31.1551ZM28.8511 43.75V44.4753H34.0031V43.75H28.8511ZM35.2191 43.078V48.8807H36.1044V43.078H35.2191ZM35.8591 45.6167V46.3527H37.5338V45.6167H35.8591ZM29.8431 49.3927V50.1287H35.2191V52.7207H36.1044V49.3927H29.8431ZM40.8609 43.622V44.614C40.8609 46.086 39.9009 47.3767 38.4289 47.8993L38.8876 48.6247C40.5409 48.006 41.5969 46.4807 41.5969 44.614V43.622H40.8609ZM41.0209 43.622V44.582C41.0209 46.3313 42.0556 47.75 43.6129 48.3367L44.0929 47.6433C42.6849 47.1527 41.7463 45.9473 41.7463 44.582V43.622H41.0209ZM45.4796 43.078V48.7847H46.3649V43.078H45.4796ZM43.1969 49.062C41.2023 49.062 39.9756 49.734 39.9756 50.886C39.9756 52.038 41.2023 52.6993 43.1969 52.6993C45.1809 52.6993 46.4076 52.038 46.4076 50.886C46.4076 49.734 45.1809 49.062 43.1969 49.062ZM43.1969 49.766C44.6476 49.766 45.5329 50.182 45.5329 50.886C45.5329 51.59 44.6476 52.006 43.1969 52.006C41.7463 52.006 40.8609 51.59 40.8609 50.886C40.8609 50.182 41.7463 49.766 43.1969 49.766ZM43.3889 45.1153V45.8513H45.6716V45.1153H43.3889Z" fill="white"/>
</svg>
