<svg width="25" height="17" viewBox="0 0 25 17" fill="none" xmlns="http://www.w3.org/2000/svg">
<path fill-rule="evenodd" clip-rule="evenodd" d="M12.4282 0C17.0748 0 21.638 2.66232 24.2073 7.80094C24.3749 8.13609 24.3749 8.53058 24.2073 8.86573C21.638 14.0043 17.0748 16.6667 12.4282 16.6667C7.78162 16.6667 3.21843 14.0043 0.649119 8.86573C0.481544 8.53058 0.481544 8.13609 0.649119 7.80094C3.21843 2.66232 7.78162 0 12.4282 0ZM3.05874 8.33333C5.28303 12.3562 8.89393 14.2857 12.4282 14.2857C15.9625 14.2857 19.5734 12.3562 21.7977 8.33333C19.5734 4.31045 15.9625 2.38095 12.4282 2.38095C8.89393 2.38095 5.28303 4.31045 3.05874 8.33333ZM12.4282 12.797C14.8938 12.797 16.8925 10.7983 16.8925 8.33269C16.8925 5.86714 14.8938 3.86841 12.4282 3.86841C9.96266 3.86841 7.96393 5.86714 7.96393 8.33269C7.96393 10.7983 9.96266 12.797 12.4282 12.797Z" fill="#777777"/>
</svg>
