<svg width="66" height="69" viewBox="0 0 66 69" fill="none" xmlns="http://www.w3.org/2000/svg">
<path d="M2.9051 69.0002C2.31045 68.6512 1.65634 68.3728 1.13177 67.9338C0.307755 67.2421 0.0189245 66.2507 0.0168008 65.195C0.00830579 59.7858 0.0125533 54.3788 0.014677 48.9697C0.014677 48.8733 0.0465333 48.7748 0.0783896 48.5949C0.35023 48.7362 0.573224 48.8433 0.787723 48.9654C4.70392 51.201 8.72206 51.3959 12.736 49.3573C13.9826 48.7255 15.087 47.7469 16.1382 46.7961C17.404 45.6526 18.5444 44.3678 19.8038 43.0787C21.0483 44.3421 22.2079 45.5306 23.3802 46.7062C27.3814 50.7213 33.0348 51.7877 38.1148 49.338C39.3954 48.7213 40.5465 47.7576 41.6232 46.7983C42.8996 45.6634 44.0316 44.3614 45.2846 43.0723C46.5673 44.3721 47.7736 45.5905 48.9757 46.8111C50.8467 48.717 53.0469 50.0254 55.6804 50.5093C58.781 51.0789 61.7033 50.58 64.4239 48.9482C64.5789 48.854 64.7382 48.7662 64.8996 48.6827C64.9399 48.6613 64.9951 48.6741 65.1502 48.6634C65.1502 48.944 65.1502 49.2181 65.1502 49.49C65.1502 54.4024 65.0801 59.3147 65.182 64.2249C65.2288 66.5291 64.5449 68.1865 62.3107 69.0002H2.9051Z" fill="#E1E1E1"/>
<path d="M36.1756 17.6211C36.543 17.6425 36.8404 17.6725 37.1398 17.6725C42.7104 17.6746 48.281 17.6746 53.8495 17.6746C58.1628 17.6746 61.4908 19.4713 63.7335 23.2123C64.7337 24.8826 65.1818 26.7284 65.1903 28.6664C65.201 30.7799 65.218 32.8978 65.099 35.007C64.893 38.6667 61.272 41.6518 57.6468 41.3349C55.7078 41.1657 54.1383 40.337 52.8004 38.9793C50.5534 36.703 48.3108 34.4224 45.8621 31.932C45.5605 31.6258 45.0742 31.6858 44.8151 32.0284C44.7938 32.0562 44.7705 32.0819 44.7471 32.1076C42.4641 34.4224 40.1725 36.7309 37.8683 39.0243C35.3899 41.489 32.0662 41.9923 29.0313 40.3177C28.3624 39.9494 27.7592 39.4162 27.2134 38.8701C24.9389 36.5981 22.6941 34.2982 20.394 31.9598C20.1307 31.6922 19.7038 31.6879 19.4341 31.947C19.3789 32.0005 19.3237 32.0541 19.2706 32.1097C16.9578 34.4332 14.6578 36.7673 12.3344 39.08C9.76678 41.6347 6.48771 42.1207 3.46773 40.3241C1.47778 39.1399 0.233257 37.3305 0.133441 34.9856C0.0187581 32.3046 -0.132028 29.5786 0.214143 26.934C0.940467 21.3964 5.51503 17.7025 11.2916 17.6811C16.8622 17.6596 22.4328 17.6768 28.0013 17.6768C28.3029 17.6768 28.6045 17.6768 28.9867 17.6768" fill="#E1E1E1"/>
<circle cx="33.0547" cy="7.01173" r="7.01173" fill="#E1E1E1"/>
</svg>
