<svg width="24" height="22" viewBox="0 0 24 22" fill="none" xmlns="http://www.w3.org/2000/svg">
<path d="M20.8382 3.60987C20.3274 3.09888 19.721 2.69352 19.0535 2.41696C18.3861 2.14039 17.6707 1.99805 16.9482 1.99805C16.2257 1.99805 15.5103 2.14039 14.8428 2.41696C14.1754 2.69352 13.5689 3.09888 13.0582 3.60987L11.9982 4.66987L10.9382 3.60987C9.90647 2.57818 8.5072 1.99858 7.04817 1.99858C5.58913 1.99858 4.18986 2.57818 3.15817 3.60987C2.12647 4.64156 1.54688 6.04084 1.54688 7.49987C1.54687 8.95891 2.12647 10.3582 3.15817 11.3899L4.21817 12.4499L11.9982 20.2299L19.7782 12.4499L20.8382 11.3899C21.3492 10.8791 21.7545 10.2727 22.0311 9.60523C22.3076 8.93777 22.45 8.22236 22.45 7.49987C22.45 6.77738 22.3076 6.06198 22.0311 5.39452C21.7545 4.72706 21.3492 4.12063 20.8382 3.60987V3.60987Z" stroke="#ff679e" stroke-width="2" stroke-linecap="round" stroke-linejoin="round"/>
</svg>
