<svg width="111" height="111" viewBox="0 0 111 111" fill="none" xmlns="http://www.w3.org/2000/svg">
<rect width="111" height="111" fill="#D8D8D8"/>
<path d="M21.7143 88.8643C21.0529 88.4761 20.3253 88.1665 19.7419 87.6782C18.8254 86.9089 18.5041 85.8061 18.5017 84.6319C18.4923 78.6156 18.497 72.6016 18.4994 66.5853C18.4994 66.4781 18.5348 66.3685 18.5702 66.1685C18.8726 66.3257 19.1206 66.4447 19.3592 66.5805C23.715 69.0671 28.1842 69.2838 32.6487 67.0164C34.0352 66.3137 35.2636 65.2253 36.4328 64.1678C37.8407 62.8959 39.1091 61.4668 40.5099 60.033C41.8941 61.4383 43.1838 62.7601 44.4878 64.0677C48.938 68.5336 55.2261 69.7197 60.8763 66.9949C62.3007 66.309 63.581 65.2372 64.7786 64.1702C66.1983 62.9078 67.4573 61.4597 68.851 60.0259C70.2777 61.4716 71.6194 62.8268 72.9564 64.1844C75.0374 66.3042 77.4846 67.7595 80.4137 68.2978C83.8624 68.9313 87.1127 68.3764 90.1386 66.5614C90.3111 66.4567 90.4882 66.359 90.6678 66.2661C90.7126 66.2423 90.7741 66.2566 90.9465 66.2447C90.9465 66.5567 90.9465 66.8616 90.9465 67.164C90.9465 72.6278 90.8686 78.0916 90.9819 83.553C91.0339 86.1158 90.2733 87.9592 87.7883 88.8643H21.7143V88.8643Z" fill="#FCFCFC"/>
<path d="M58.7169 31.7183C59.1256 31.7421 59.4563 31.7754 59.7893 31.7754C65.9853 31.7778 72.1812 31.7778 78.3747 31.7778C83.1722 31.7778 86.8737 33.7761 89.3682 37.9371C90.4807 39.7948 90.9791 41.8479 90.9886 44.0034C91.0004 46.3542 91.0193 48.7098 90.887 51.0558C90.6579 55.1263 86.6304 58.4465 82.5982 58.094C80.4416 57.9058 78.696 56.984 77.2078 55.474C74.7087 52.9422 72.2142 50.4056 69.4907 47.6356C69.1553 47.295 68.6143 47.3617 68.3261 47.7428C68.3025 47.7738 68.2765 47.8023 68.2505 47.8309C65.7112 50.4056 63.1625 52.9732 60.5995 55.524C57.8429 58.2654 54.1462 58.8252 50.7706 56.9626C50.0266 56.5529 49.3557 55.9599 48.7486 55.3525C46.2188 52.8255 43.722 50.2675 41.1638 47.6666C40.8709 47.3689 40.3961 47.3641 40.0961 47.6523C40.0347 47.7118 39.9733 47.7714 39.9142 47.8333C37.3418 50.4175 34.7836 53.0136 32.1994 55.586C29.3436 58.4274 25.6964 58.9681 22.3375 56.9698C20.1241 55.6526 18.7399 53.64 18.6289 51.032C18.5013 48.05 18.3336 45.018 18.7187 42.0766C19.5265 35.9173 24.6146 31.8088 31.0396 31.785C37.2355 31.7611 43.4315 31.7802 49.625 31.7802C49.9604 31.7802 50.2959 31.7802 50.721 31.7802" fill="#FCFCFC"/>
<circle cx="55.2519" cy="19.9189" r="7.79881" fill="#FCFCFC"/>
</svg>
