<svg width="24" height="24" viewBox="0 0 24 24" fill="none" xmlns="http://www.w3.org/2000/svg">
<rect width="24" height="24" rx="12" fill="#FF679E"/>
<path d="M6 8H7.33333H18" stroke="white" stroke-linecap="round" stroke-linejoin="round"/>
<path d="M9.33203 7.99992V6.66659C9.33203 6.31296 9.47251 5.97382 9.72256 5.72378C9.9726 5.47373 10.3117 5.33325 10.6654 5.33325H13.332C13.6857 5.33325 14.0248 5.47373 14.2748 5.72378C14.5249 5.97382 14.6654 6.31296 14.6654 6.66659V7.99992M16.6654 7.99992V17.3333C16.6654 17.6869 16.5249 18.026 16.2748 18.2761C16.0248 18.5261 15.6857 18.6666 15.332 18.6666H8.66536C8.31174 18.6666 7.9726 18.5261 7.72256 18.2761C7.47251 18.026 7.33203 17.6869 7.33203 17.3333V7.99992H16.6654Z" stroke="white" stroke-linecap="round" stroke-linejoin="round"/>
<path d="M13.332 11.3333V15.3333" stroke="white" stroke-linecap="round" stroke-linejoin="round"/>
<path d="M10.668 11.3333V15.3333" stroke="white" stroke-linecap="round" stroke-linejoin="round"/>
</svg>
