<svg width="24" height="24" viewBox="0 0 24 24" fill="none" xmlns="http://www.w3.org/2000/svg">
<rect width="24" height="24" rx="12" fill="#FF679E"/>
<path d="M6 8H7.33333H18" stroke="white" stroke-linecap="round" stroke-linejoin="round"/>
<path d="M9.33325 7.99967V6.66634C9.33325 6.31272 9.47373 5.97358 9.72378 5.72353C9.97383 5.47348 10.313 5.33301 10.6666 5.33301H13.3333C13.6869 5.33301 14.026 5.47348 14.2761 5.72353C14.5261 5.97358 14.6666 6.31272 14.6666 6.66634V7.99967M16.6666 7.99967V17.333C16.6666 17.6866 16.5261 18.0258 16.2761 18.2758C16.026 18.5259 15.6869 18.6663 15.3333 18.6663H8.66659C8.31296 18.6663 7.97382 18.5259 7.72378 18.2758C7.47373 18.0258 7.33325 17.6866 7.33325 17.333V7.99967H16.6666Z" stroke="white" stroke-linecap="round" stroke-linejoin="round"/>
<path d="M13.3333 11.333V15.333" stroke="white" stroke-linecap="round" stroke-linejoin="round"/>
<path d="M10.6667 11.333V15.333" stroke="white" stroke-linecap="round" stroke-linejoin="round"/>
</svg>
