<svg width="48" height="48" viewBox="0 0 48 48" fill="none" xmlns="http://www.w3.org/2000/svg">
<circle cx="24" cy="24" r="24" fill="#777777"/>
<path d="M10.5798 31.336V32.0925C10.5798 33.189 9.92533 34.192 8.70133 34.6085L9.15183 35.3225C10.5458 34.8295 11.3108 33.5715 11.3108 32.0925V31.336H10.5798ZM10.7583 31.336V32.169C10.7583 33.5375 11.5148 34.7275 12.8578 35.195L13.2998 34.4895C12.1353 34.107 11.4723 33.1635 11.4723 32.169V31.336H10.7583ZM13.9203 30.9365V35.637H14.8128V30.9365H13.9203ZM14.5663 32.917V33.6565H15.9093V32.917H14.5663ZM9.70433 35.994V36.7165H13.9203V38.7055H14.8128V35.994H9.70433ZM22.3432 30.9365V38.7055H23.1932V30.9365H22.3432ZM19.6317 33.665V34.396H21.0342V33.665H19.6317ZM20.7792 31.0895V38.323H21.6122V31.0895H20.7792ZM18.0592 32.169V33.07C18.0592 34.4555 17.5492 35.858 16.4442 36.538L16.9797 37.201C18.1612 36.453 18.7392 34.787 18.7392 33.07V32.169H18.0592ZM18.2547 32.169V33.07C18.2547 34.736 18.7987 36.3085 19.9802 37.014L20.5072 36.3595C19.4192 35.722 18.9262 34.396 18.9262 33.07V32.169H18.2547ZM16.6907 31.7865V32.509H20.2012V31.7865H16.6907ZM29.525 30.9365V38.7055H30.409V30.9365H29.525ZM30.205 34.056V34.7955H31.616V34.056H30.205ZM24.3485 32.135V32.849H28.9045V32.135H24.3485ZM26.652 33.41C25.5385 33.41 24.7225 34.158 24.7225 35.2205C24.7225 36.2915 25.5385 37.0395 26.652 37.0395C27.757 37.0395 28.573 36.2915 28.573 35.2205C28.573 34.158 27.757 33.41 26.652 33.41ZM26.652 34.141C27.2725 34.141 27.723 34.566 27.723 35.2205C27.723 35.875 27.2725 36.3085 26.652 36.3085C26.023 36.3085 25.5725 35.875 25.5725 35.2205C25.5725 34.566 26.023 34.141 26.652 34.141ZM26.193 31.047V32.4325H27.0855V31.047H26.193ZM37.7268 30.9365V38.7055H38.6193V30.9365H37.7268ZM35.4488 31.761V31.914C35.4488 33.988 34.5053 35.5265 32.2698 36.606L32.7373 37.32C35.4063 36.0195 36.3243 34.0645 36.3243 31.761H35.4488ZM32.6523 31.761V32.475H35.8483V31.761H32.6523Z" fill="white"/>
<path d="M15.75 11.5H17.5833H32.25" stroke="white" stroke-width="1.83333" stroke-linecap="round" stroke-linejoin="round"/>
<path d="M20.332 11.4999V9.66659C20.332 9.18036 20.5252 8.71404 20.869 8.37022C21.2128 8.02641 21.6791 7.83325 22.1654 7.83325H25.832C26.3183 7.83325 26.7846 8.02641 27.1284 8.37022C27.4722 8.71404 27.6654 9.18036 27.6654 9.66659V11.4999M30.4154 11.4999V24.3333C30.4154 24.8195 30.2222 25.2858 29.8784 25.6296C29.5346 25.9734 29.0683 26.1666 28.582 26.1666H19.4154C18.9291 26.1666 18.4628 25.9734 18.119 25.6296C17.7752 25.2858 17.582 24.8195 17.582 24.3333V11.4999H30.4154Z" stroke="white" stroke-width="1.83333" stroke-linecap="round" stroke-linejoin="round"/>
<path d="M25.832 16.0833V21.5833" stroke="white" stroke-width="1.83333" stroke-linecap="round" stroke-linejoin="round"/>
<path d="M22.168 16.0833V21.5833" stroke="white" stroke-width="1.83333" stroke-linecap="round" stroke-linejoin="round"/>
</svg>
