<svg width="48" height="48" viewBox="0 0 48 48" fill="none" xmlns="http://www.w3.org/2000/svg">
<circle cx="24" cy="24" r="24" fill="#FF679E"/>
<path d="M12.6963 37.014V35.2035H14.9658V34.498H10.5203V32.2625H14.8978V31.557H9.64483V35.2035H11.8208V37.014H8.79483V37.7365H15.7478V37.014H12.6963ZM17.5662 33.41C17.5662 32.713 18.0762 32.254 18.7477 32.254C19.4192 32.254 19.9377 32.713 19.9377 33.41C19.9377 34.1155 19.4192 34.5745 18.7477 34.5745C18.0762 34.5745 17.5662 34.1155 17.5662 33.41ZM20.7962 33.41C20.7962 32.288 19.9122 31.4975 18.7477 31.4975C17.5917 31.4975 16.7077 32.288 16.7077 33.41C16.7077 34.532 17.5917 35.331 18.7477 35.331C19.9122 35.331 20.7962 34.532 20.7962 33.41ZM18.6287 36.028H17.7447V38.51H22.9127V37.796H18.6287V36.028ZM22.6067 33.257V30.979H21.7312V36.606H22.6067V33.9795H23.6947V33.257H22.6067ZM28.5475 34.0305H27.417C27.638 33.376 27.74 32.6705 27.74 31.9225H24.7565V32.628H26.873C26.7455 34.2005 25.989 35.4585 24.391 36.4105L24.8925 37.031C25.955 36.3935 26.686 35.62 27.1365 34.736H28.5475V38.289H29.372V31.166H28.5475V34.0305ZM30.154 30.979V38.6545H30.9955V30.979H30.154ZM35.0833 31.6165H34.2078V32.8745C34.2078 34.3535 33.4088 35.824 32.1848 36.3765L32.7033 37.1075C33.6298 36.657 34.3098 35.7475 34.6583 34.634C35.0068 35.671 35.6783 36.521 36.5623 36.9375L37.0723 36.2405C35.8653 35.6965 35.0833 34.2855 35.0833 32.8745V31.6165ZM37.6843 30.9705V38.6715H38.5683V30.9705H37.6843Z" fill="white"/>
<path d="M27.75 10.25C27.947 10.053 28.1808 9.89674 28.4382 9.79014C28.6956 9.68353 28.9714 9.62866 29.25 9.62866C29.5286 9.62866 29.8044 9.68353 30.0618 9.79014C30.3192 9.89674 30.553 10.053 30.75 10.25C30.947 10.447 31.1032 10.6808 31.2098 10.9382C31.3165 11.1956 31.3713 11.4714 31.3713 11.75C31.3713 12.0286 31.3165 12.3044 31.2098 12.5618C31.1032 12.8191 30.947 13.053 30.75 13.25L20.625 23.375L16.5 24.5L17.625 20.375L27.75 10.25Z" stroke="white" stroke-width="2.34391" stroke-linecap="round" stroke-linejoin="round"/>
</svg>
