<svg width="30" height="30" viewBox="0 0 34 34" fill="none" xmlns="http://www.w3.org/2000/svg">
<circle cx="17" cy="17" r="17" fill="#FF679E"/>
<path d="M21.167 9.49993C21.3859 9.28106 21.6457 9.10744 21.9317 8.98899C22.2176 8.87054 22.5241 8.80957 22.8337 8.80957C23.1432 8.80957 23.4497 8.87054 23.7357 8.98899C24.0216 9.10744 24.2815 9.28106 24.5003 9.49993C24.7192 9.7188 24.8928 9.97863 25.0113 10.2646C25.1297 10.5506 25.1907 10.8571 25.1907 11.1666C25.1907 11.4761 25.1297 11.7826 25.0113 12.0686C24.8928 12.3546 24.7192 12.6144 24.5003 12.8333L13.2503 24.0833L8.66699 25.3333L9.91699 20.7499L21.167 9.49993Z" stroke="white" stroke-width="2.34391" stroke-linecap="round" stroke-linejoin="round"/>
</svg>
