<svg width="40" height="40" viewBox="0 0 45 45" fill="none" xmlns="http://www.w3.org/2000/svg">
<circle cx="22.087" cy="22.0867" r="18.0341" transform="rotate(-105 22.087 22.0867)" fill="#FF679E"/>
<path d="M33 15.002V21.002H27" stroke="white" stroke-width="2" stroke-linecap="round" stroke-linejoin="round"/>
<path d="M30.4899 26.002C29.8399 27.8419 28.6094 29.4207 26.984 30.5005C25.3586 31.5803 23.4263 32.1025 21.4783 31.9886C19.5303 31.8746 17.672 31.1306 16.1836 29.8686C14.6952 28.6067 13.6573 26.8952 13.2262 24.992C12.7952 23.0889 12.9944 21.0972 13.7937 19.317C14.5931 17.5369 15.9494 16.0648 17.6582 15.1226C19.367 14.1804 21.3358 13.8191 23.2678 14.0931C25.1999 14.3672 26.9905 15.2617 28.3699 16.642L32.9999 21.002" stroke="white" stroke-width="2" stroke-linecap="round" stroke-linejoin="round"/>
</svg>
