<svg width="59" height="21" viewBox="0 0 59 21" fill="none" xmlns="http://www.w3.org/2000/svg">
<rect x="0.5" y="2.5" width="58" height="17.7917" rx="8.89583" fill="#FCFCFC" stroke="#FF679E"/>
<path d="M15.3984 13.6328L15.3828 14.3359C15.3828 14.8464 15.4505 15.1979 15.5859 15.3906C15.7266 15.5833 15.9271 15.6797 16.1875 15.6797C16.4531 15.6797 16.6849 15.6094 16.8828 15.4688C17.0859 15.3229 17.2604 15.1224 17.4062 14.8672C17.5573 14.6068 17.6901 14.3359 17.8047 14.0547C17.9193 13.7734 18.0208 13.4531 18.1094 13.0938C18.2344 12.6094 18.3333 12.1719 18.4062 11.7812C18.4792 11.3854 18.5208 11.1641 18.5312 11.1172L19.3672 6.6875C19.4141 6.39062 20.0104 6.24219 21.1562 6.24219C21 7.4349 20.8255 8.3724 20.6328 9.05469C20.6328 9.07552 20.5365 9.54427 20.3438 10.4609C19.9792 12.2266 19.6953 13.3802 19.4922 13.9219C19.6432 14.3385 19.9401 14.6875 20.3828 14.9688C20.8255 15.25 21.3411 15.3906 21.9297 15.3906C22.5234 15.3906 22.9896 15.1875 23.3281 14.7812C23.6719 14.375 23.8438 13.8724 23.8438 13.2734C23.8438 12.6745 23.6745 12.0703 23.3359 11.4609C22.9974 10.8464 22.5599 10.3906 22.0234 10.0938V9.1875C22.7318 9.15104 23.3099 8.96615 23.7578 8.63281C24.2109 8.29948 24.4375 7.875 24.4375 7.35938C24.4375 5.875 23.2005 5.13281 20.7266 5.13281C19.9193 5.13281 19.1068 5.3125 18.2891 5.67188C17.362 6.07292 16.7188 6.5599 16.3594 7.13281C16.1562 7.46094 16.0547 7.80208 16.0547 8.15625C16.0547 8.74479 16.4766 9.1875 17.3203 9.48438C17.3203 9.94792 17.2604 10.3802 17.1406 10.7812C16.5573 10.599 16.0312 10.3073 15.5625 9.90625C15.0469 9.45312 14.7891 8.91927 14.7891 8.30469C14.7891 7.6901 14.974 7.11979 15.3438 6.59375C15.7135 6.06771 16.2031 5.6276 16.8125 5.27344C18.1198 4.51823 19.6432 4.14062 21.3828 4.14062C22.9349 4.14062 24.1198 4.49219 24.9375 5.19531C25.5312 5.70052 25.8281 6.36979 25.8281 7.20312C25.8281 7.60938 25.7396 7.96094 25.5625 8.25781C25.3854 8.55469 25.1979 8.78906 25 8.96094C24.5521 9.35677 23.9167 9.5599 23.0938 9.57031C24.0938 10.0807 24.8385 10.6823 25.3281 11.375C25.8229 12.0677 26.0703 12.7083 26.0703 13.2969C26.0703 13.8854 25.9688 14.375 25.7656 14.7656C25.5625 15.151 25.2865 15.4635 24.9375 15.7031C24.2292 16.1979 23.4115 16.4453 22.4844 16.4453C21.5625 16.4453 20.8359 16.3073 20.3047 16.0312C19.7786 15.7604 19.349 15.3438 19.0156 14.7812C18.526 15.4115 18.0521 15.8464 17.5938 16.0859C17.1406 16.3255 16.6432 16.4453 16.1016 16.4453C15.5859 16.4453 15.0938 16.3021 14.625 16.0156C14.401 15.8802 14.2161 15.6927 14.0703 15.4531C13.9297 15.2135 13.8594 14.9479 13.8594 14.6562C13.8594 13.974 14.3724 13.6328 15.3984 13.6328ZM29.4453 11.5859C29.8411 12.0964 30.2786 12.3516 30.7578 12.3516C31.0599 12.3516 31.3203 12.2031 31.5391 11.9062C31.763 11.6094 31.875 11.2969 31.875 10.9688C31.875 10.6406 31.8125 10.4219 31.6875 10.3125C31.5677 10.1979 31.3906 10.1406 31.1562 10.1406C30.9271 10.1406 30.7109 10.1927 30.5078 10.2969C30.3099 10.401 30.1406 10.5312 30 10.6875C29.7292 10.9948 29.5443 11.2943 29.4453 11.5859ZM33.7344 12.5781V13.4375C32.9062 14.349 32.1667 15.0417 31.5156 15.5156C30.8646 15.9896 30.2448 16.2266 29.6562 16.2266C28.4792 16.2266 27.7448 15.8438 27.4531 15.0781C27.3438 14.776 27.2891 14.4115 27.2891 13.9844C27.2891 13.224 27.4479 12.5 27.7656 11.8125C28.0833 11.1198 28.5391 10.5521 29.1328 10.1094C29.7318 9.66146 30.3958 9.4375 31.125 9.4375C32.3542 9.4375 32.9688 9.89583 32.9688 10.8125C32.9688 11.4062 32.7292 11.9245 32.25 12.3672C31.7708 12.8047 31.2318 13.0234 30.6328 13.0234C30.3932 13.0234 30.1432 12.9531 29.8828 12.8125C29.6224 12.6719 29.401 12.4609 29.2188 12.1797C28.9948 12.6484 28.8828 13.1068 28.8828 13.5547C28.8828 14.7578 29.3203 15.3594 30.1953 15.3594C30.4245 15.3594 30.7057 15.25 31.0391 15.0312C31.3776 14.8125 31.6745 14.5833 31.9297 14.3438C32.1901 14.099 32.5182 13.7786 32.9141 13.3828C33.3099 12.9818 33.5833 12.7135 33.7344 12.5781ZM34.0156 10.2578C33.9427 10.2578 33.8802 10.2578 33.8281 10.2578C33.7812 10.2578 33.7344 10.2578 33.6875 10.2578C33.6406 10.2526 33.6042 10.2474 33.5781 10.2422C33.5521 10.237 33.5208 10.2292 33.4844 10.2188C33.4531 10.2083 33.4271 10.1953 33.4062 10.1797C33.3854 10.1641 33.3646 10.1458 33.3438 10.125C33.3073 10.0833 33.2891 10.0286 33.2891 9.96094C33.2891 9.88802 33.2917 9.84115 33.2969 9.82031C33.3177 9.76823 33.4115 9.73177 33.5781 9.71094L34.2344 9.64844C34.4792 8.83594 34.651 8.32031 34.75 8.10156C34.849 7.8776 34.9427 7.67708 35.0312 7.5C35.125 7.32292 35.2135 7.1849 35.2969 7.08594C35.3854 6.98698 35.487 6.88021 35.6016 6.76562C35.7161 6.65104 35.8359 6.5651 35.9609 6.50781C36.2578 6.3724 36.5625 6.30469 36.875 6.30469L36.9062 6.33594C36.9062 6.35677 36.8385 6.5599 36.7031 6.94531C36.2552 8.22656 35.9557 9.1276 35.8047 9.64844L38.1875 9.53906L38.0156 9.82031C37.8854 10.0599 37.1068 10.1797 35.6797 10.1797C35.6745 10.1797 35.5938 10.4688 35.4375 11.0469C34.9688 12.7708 34.7344 13.8151 34.7344 14.1797C34.7344 14.5495 34.776 14.763 34.8594 14.8203C34.9427 14.8724 35.0286 14.8984 35.1172 14.8984C35.3984 14.8984 36.3906 14.0911 38.0938 12.4766V13.3594C37.9167 13.5208 37.6719 13.7474 37.3594 14.0391C37.0469 14.3307 36.7995 14.5599 36.6172 14.7266C36.4401 14.888 36.2161 15.0781 35.9453 15.2969C35.6797 15.5156 35.4531 15.6823 35.2656 15.7969C34.7865 16.0833 34.3646 16.2266 34 16.2266C33.3802 16.2266 33.0703 15.7943 33.0703 14.9297C33.0703 14.4557 33.1432 13.8984 33.2891 13.2578C33.4401 12.612 33.5677 12.0859 33.6719 11.6797C33.776 11.2682 33.8906 10.7943 34.0156 10.2578ZM38.1719 16.2266C37.5469 16.2266 37.1615 15.7865 37.0156 14.9062C36.9844 14.6927 36.9688 14.4714 36.9688 14.2422C36.9688 13.6745 37.1094 13.1016 37.3906 12.5234C37.6719 11.9453 38.0417 11.4297 38.5 10.9766C38.9635 10.5234 39.5156 10.1536 40.1562 9.86719C40.8021 9.58073 41.4609 9.4375 42.1328 9.4375C42.4609 9.4375 42.8984 9.52344 43.4453 9.69531C43.4401 9.73177 43.388 9.97135 43.2891 10.4141C43.1901 10.8516 43.0911 11.2995 42.9922 11.7578C42.7214 13.013 42.5859 13.7917 42.5859 14.0938C42.5859 14.3958 42.6641 14.5469 42.8203 14.5469C43.1641 14.5469 43.9609 13.8854 45.2109 12.5625V13.4375C44.4193 14.2552 43.6641 14.9245 42.9453 15.4453C42.2318 15.9661 41.7552 16.2266 41.5156 16.2266C41.1198 16.2266 40.9219 15.8854 40.9219 15.2031C40.9219 14.9792 40.9427 14.7266 40.9844 14.4453C40.6094 14.9349 40.1719 15.3542 39.6719 15.7031C39.1771 16.0521 38.6771 16.2266 38.1719 16.2266ZM38.6328 13.8047C38.6328 14.5859 38.888 14.9766 39.3984 14.9766C39.6172 14.9766 39.8854 14.862 40.2031 14.6328C40.526 14.4036 40.8177 14.151 41.0781 13.875L41.9766 10.0312C41.4141 10.0312 40.8698 10.2318 40.3438 10.6328C39.8177 11.0339 39.401 11.526 39.0938 12.1094C38.7865 12.6927 38.6328 13.2578 38.6328 13.8047Z" fill="#FF2976"/>
</svg>
