<svg width="107" height="107" viewBox="0 0 107 107" fill="none" xmlns="http://www.w3.org/2000/svg">
<path d="M93.2481 44.4043C93.2481 75.4873 53.2842 102.13 53.2842 102.13C53.2842 102.13 13.3203 75.4873 13.3203 44.4043C13.3203 33.8052 17.5308 23.6403 25.0255 16.1456C32.5201 8.6509 42.6851 4.44043 53.2842 4.44043C63.8833 4.44043 74.0483 8.6509 81.5429 16.1456C89.0376 23.6403 93.2481 33.8052 93.2481 44.4043Z" fill="#FF679E"/>
<path d="M53.2861 57.7256C60.6433 57.7256 66.6074 51.7615 66.6074 44.4043C66.6074 37.0472 60.6433 31.083 53.2861 31.083C45.929 31.083 39.9648 37.0472 39.9648 44.4043C39.9648 51.7615 45.929 57.7256 53.2861 57.7256Z" fill="white" stroke="white" stroke-width="8.88086" stroke-linecap="round" stroke-linejoin="round"/>
<circle cx="53" cy="44" r="38" fill="#FF679E"/>
<g clip-path="url(#clip0_2180_4189)">
<path d="M52.9922 23.1003V64.9003" stroke="white" stroke-width="4.22222" stroke-linecap="round" stroke-linejoin="round"/>
<path d="M61.7013 30.7004H48.6388C47.0221 30.7004 45.4716 31.4011 44.3284 32.6482C43.1852 33.8953 42.543 35.5867 42.543 37.3504C42.543 39.1141 43.1852 40.8056 44.3284 42.0527C45.4716 43.2998 47.0221 44.0004 48.6388 44.0004H57.3471C58.9639 44.0004 60.5144 44.7011 61.6575 45.9482C62.8007 47.1953 63.443 48.8867 63.443 50.6504C63.443 52.4141 62.8007 54.1056 61.6575 55.3527C60.5144 56.5998 58.9639 57.3004 57.3471 57.3004H42.543" stroke="white" stroke-width="4.22222" stroke-linecap="round" stroke-linejoin="round"/>
</g>
<defs>
<clipPath id="clip0_2180_4189">
<rect width="41.8" height="45.6" fill="white" transform="translate(32.0938 21.2004)"/>
</clipPath>
</defs>
</svg>
