<svg width="48" height="48" viewBox="0 0 48 48" fill="none" xmlns="http://www.w3.org/2000/svg">
<circle cx="24" cy="24" r="24" fill="#FF679E"/>
<path d="M11.7528 31.744V32.033C11.7528 32.951 10.6478 33.835 9.12633 34.039L9.46633 34.736C11.2088 34.4725 12.5263 33.41 12.5263 32.033V31.744H11.7528ZM11.9993 31.744V32.033C11.9993 33.41 13.3083 34.4725 15.0593 34.736L15.3908 34.039C13.8778 33.835 12.7643 32.951 12.7643 32.033V31.744H11.9993ZM11.7953 35.7985V38.7055H12.6793V35.7985H11.7953ZM8.75233 35.297V36.0195H15.7733V35.297H8.75233ZM9.38983 31.3785V32.0925H15.1103V31.3785H9.38983ZM16.5632 34.8465V35.5605H23.6012V34.8465H16.5632ZM19.7082 35.297V37.014H20.5922V35.297H19.7082ZM17.4472 31.285V34.0815H22.6917V31.285H17.4472ZM21.8162 31.9905V33.376H18.3227V31.9905H21.8162ZM17.4217 37.83V38.5525H22.8192V37.83H17.4217ZM17.4217 36.3085V38.0765H18.3057V36.3085H17.4217ZM29.525 30.9365V38.7055H30.409V30.9365H29.525ZM30.205 34.056V34.7955H31.616V34.056H30.205ZM24.3485 32.135V32.849H28.9045V32.135H24.3485ZM26.652 33.41C25.5385 33.41 24.7225 34.158 24.7225 35.2205C24.7225 36.2915 25.5385 37.0395 26.652 37.0395C27.757 37.0395 28.573 36.2915 28.573 35.2205C28.573 34.158 27.757 33.41 26.652 33.41ZM26.652 34.141C27.2725 34.141 27.723 34.566 27.723 35.2205C27.723 35.875 27.2725 36.3085 26.652 36.3085C26.023 36.3085 25.5725 35.875 25.5725 35.2205C25.5725 34.566 26.023 34.141 26.652 34.141ZM26.193 31.047V32.4325H27.0855V31.047H26.193ZM37.7268 30.9365V38.7055H38.6193V30.9365H37.7268ZM35.4488 31.761V31.914C35.4488 33.988 34.5053 35.5265 32.2698 36.606L32.7373 37.32C35.4063 36.0195 36.3243 34.0645 36.3243 31.761H35.4488ZM32.6523 31.761V32.475H35.8483V31.761H32.6523Z" fill="white"/>
<g clip-path="url(#clip0_2616_4727)">
<path d="M24 7.83325V26.1666" stroke="white" stroke-width="2.05639" stroke-linecap="round" stroke-linejoin="round"/>
<path d="M28.1667 11.1666H21.9167C21.1431 11.1666 20.4013 11.4739 19.8543 12.0209C19.3073 12.5679 19 13.3097 19 14.0833C19 14.8568 19.3073 15.5987 19.8543 16.1457C20.4013 16.6927 21.1431 17 21.9167 17H26.0833C26.8569 17 27.5987 17.3073 28.1457 17.8542C28.6927 18.4012 29 19.1431 29 19.9166C29 20.6902 28.6927 21.432 28.1457 21.979C27.5987 22.526 26.8569 22.8333 26.0833 22.8333H19" stroke="white" stroke-width="2.05639" stroke-linecap="round" stroke-linejoin="round"/>
</g>
<defs>
<clipPath id="clip0_2616_4727">
<rect width="20" height="20" fill="white" transform="translate(14 7)"/>
</clipPath>
</defs>
</svg>
