<svg width="22" height="23" viewBox="0 0 22 23" fill="none" xmlns="http://www.w3.org/2000/svg">
<path d="M19.2578 9.72022C19.2578 16.1369 11.0078 21.6369 11.0078 21.6369C11.0078 21.6369 2.75781 16.1369 2.75781 9.72022C2.75781 7.53218 3.62701 5.43376 5.17418 3.88658C6.72136 2.33941 8.81978 1.47021 11.0078 1.47021C13.1958 1.47021 15.2943 2.33941 16.8414 3.88658C18.3886 5.43376 19.2578 7.53218 19.2578 9.72022Z" fill="#FF679E"/>
<path d="M11.0078 12.4697C12.5266 12.4697 13.7578 11.2385 13.7578 9.71973C13.7578 8.20094 12.5266 6.96973 11.0078 6.96973C9.48903 6.96973 8.25781 8.20094 8.25781 9.71973C8.25781 11.2385 9.48903 12.4697 11.0078 12.4697Z" fill="#FF679E" stroke="#FF679E" stroke-width="8.88086" stroke-linecap="round" stroke-linejoin="round"/>
</svg>
