<svg width="35" height="35" viewBox="0 0 67 67" fill="none" xmlns="http://www.w3.org/2000/svg">
<circle cx="33.5" cy="33.5" r="33.5" fill="#FF679E"/>
<path d="M12.5823 39.945V40.515C12.5823 42.3 10.2573 43.86 7.87234 44.205L8.35234 45.195C11.0823 44.73 13.6623 42.945 13.6623 40.515V39.945H12.5823ZM12.8973 39.945V40.515C12.8973 42.945 15.4623 44.73 18.2073 45.195L18.6723 44.205C16.3023 43.86 13.9623 42.3 13.9623 40.515V39.945H12.8973ZM12.6273 46.995V52.17H13.8573V46.995H12.6273ZM7.15234 46.335V47.355H19.4073V46.335H7.15234ZM8.29234 39.45V40.455H18.2223V39.45H8.29234ZM20.9362 45.54V46.56H33.2212V45.54H20.9362ZM26.5462 46.17V49.29H27.7912V46.17H26.5462ZM22.5112 39.24V44.01H31.6312V39.24H22.5112ZM30.4012 40.245V43.005H23.7262V40.245H30.4012ZM22.4962 50.85V51.87H31.8562V50.85H22.4962ZM22.4962 47.985V51.21H23.7262V47.985H22.4962ZM43.93 38.61V52.17H45.175V38.61H43.93ZM44.875 44.175V45.225H47.395V44.175H44.875ZM34.675 40.77V41.79H42.67V40.77H34.675ZM38.725 42.915C36.82 42.915 35.425 44.205 35.425 46.035C35.425 47.865 36.82 49.155 38.725 49.155C40.645 49.155 42.025 47.865 42.025 46.035C42.025 44.205 40.645 42.915 38.725 42.915ZM38.725 43.95C39.955 43.95 40.84 44.805 40.84 46.035C40.84 47.25 39.955 48.12 38.725 48.12C37.495 48.12 36.61 47.25 36.61 46.035C36.61 44.805 37.495 43.95 38.725 43.95ZM38.08 38.775V41.235H39.325V38.775H38.08ZM58.4188 38.61V52.17H59.6638V38.61H58.4188ZM54.4438 40.065V40.275C54.4438 43.875 52.6288 46.755 48.7138 48.645L49.3738 49.65C53.9038 47.43 55.6738 43.995 55.6738 40.065H54.4438ZM49.3288 40.065V41.085H54.9838V40.065H49.3288Z" fill="white"/>
<path d="M12.5823 39.945V38.945H11.5823V39.945H12.5823ZM7.87234 44.205L7.72918 43.2153L6.37605 43.411L6.97253 44.6413L7.87234 44.205ZM8.35234 45.195L7.45253 45.6313L7.78009 46.3069L8.52026 46.1808L8.35234 45.195ZM13.6623 39.945H14.6623V38.945H13.6623V39.945ZM12.8973 39.945V38.945H11.8973V39.945H12.8973ZM18.2073 45.195L18.0403 46.181L18.7895 46.3079L19.1125 45.6201L18.2073 45.195ZM18.6723 44.205L19.5775 44.6301L20.1507 43.4097L18.8164 43.2154L18.6723 44.205ZM13.9623 39.945H14.9623V38.945H13.9623V39.945ZM12.6273 46.995V45.995H11.6273V46.995H12.6273ZM12.6273 52.17H11.6273V53.17H12.6273V52.17ZM13.8573 52.17V53.17H14.8573V52.17H13.8573ZM13.8573 46.995H14.8573V45.995H13.8573V46.995ZM7.15234 46.335V45.335H6.15234V46.335H7.15234ZM7.15234 47.355H6.15234V48.355H7.15234V47.355ZM19.4073 47.355V48.355H20.4073V47.355H19.4073ZM19.4073 46.335H20.4073V45.335H19.4073V46.335ZM8.29234 39.45V38.45H7.29234V39.45H8.29234ZM8.29234 40.455H7.29234V41.455H8.29234V40.455ZM18.2223 40.455V41.455H19.2223V40.455H18.2223ZM18.2223 39.45H19.2223V38.45H18.2223V39.45ZM11.5823 39.945V40.515H13.5823V39.945H11.5823ZM11.5823 40.515C11.5823 40.9577 11.2815 41.533 10.5236 42.0986C9.78847 42.6472 8.77037 43.0647 7.72918 43.2153L8.01551 45.1947C9.35932 45.0003 10.6962 44.4653 11.7198 43.7014C12.7207 42.9545 13.5823 41.8573 13.5823 40.515H11.5823ZM6.97253 44.6413L7.45253 45.6313L9.25216 44.7587L8.77216 43.7687L6.97253 44.6413ZM8.52026 46.1808C10.0291 45.9238 11.5246 45.2998 12.6649 44.3654C13.8083 43.4285 14.6623 42.1144 14.6623 40.515H12.6623C12.6623 41.3456 12.2264 42.139 11.3973 42.8184C10.5651 43.5002 9.40555 44.0012 8.18443 44.2092L8.52026 46.1808ZM14.6623 40.515V39.945H12.6623V40.515H14.6623ZM13.6623 38.945H12.5823V40.945H13.6623V38.945ZM11.8973 39.945V40.515H13.8973V39.945H11.8973ZM11.8973 40.515C11.8973 42.1125 12.7457 43.4266 13.8884 44.3648C15.0277 45.3001 16.5239 45.9241 18.0403 46.181L18.3744 44.209C17.1458 44.0009 15.987 43.4999 15.1575 42.819C14.3315 42.1409 13.8973 41.3475 13.8973 40.515H11.8973ZM19.1125 45.6201L19.5775 44.6301L17.7672 43.7799L17.3022 44.7699L19.1125 45.6201ZM18.8164 43.2154C17.7828 43.065 16.7638 42.6475 16.0259 42.098C15.2643 41.5308 14.9623 40.9554 14.9623 40.515H12.9623C12.9623 41.8596 13.8304 42.9567 14.8313 43.702C15.8558 44.465 17.1919 45 18.5283 45.1946L18.8164 43.2154ZM14.9623 40.515V39.945H12.9623V40.515H14.9623ZM13.9623 38.945H12.8973V40.945H13.9623V38.945ZM11.6273 46.995V52.17H13.6273V46.995H11.6273ZM12.6273 53.17H13.8573V51.17H12.6273V53.17ZM14.8573 52.17V46.995H12.8573V52.17H14.8573ZM13.8573 45.995H12.6273V47.995H13.8573V45.995ZM6.15234 46.335V47.355H8.15234V46.335H6.15234ZM7.15234 48.355H19.4073V46.355H7.15234V48.355ZM20.4073 47.355V46.335H18.4073V47.355H20.4073ZM19.4073 45.335H7.15234V47.335H19.4073V45.335ZM7.29234 39.45V40.455H9.29234V39.45H7.29234ZM8.29234 41.455H18.2223V39.455H8.29234V41.455ZM19.2223 40.455V39.45H17.2223V40.455H19.2223ZM18.2223 38.45H8.29234V40.45H18.2223V38.45ZM20.9362 45.54V44.54H19.9362V45.54H20.9362ZM20.9362 46.56H19.9362V47.56H20.9362V46.56ZM33.2212 46.56V47.56H34.2212V46.56H33.2212ZM33.2212 45.54H34.2212V44.54H33.2212V45.54ZM26.5462 46.17V45.17H25.5462V46.17H26.5462ZM26.5462 49.29H25.5462V50.29H26.5462V49.29ZM27.7912 49.29V50.29H28.7912V49.29H27.7912ZM27.7912 46.17H28.7912V45.17H27.7912V46.17ZM22.5112 39.24V38.24H21.5112V39.24H22.5112ZM22.5112 44.01H21.5112V45.01H22.5112V44.01ZM31.6312 44.01V45.01H32.6312V44.01H31.6312ZM31.6312 39.24H32.6312V38.24H31.6312V39.24ZM30.4012 40.245H31.4012V39.245H30.4012V40.245ZM30.4012 43.005V44.005H31.4012V43.005H30.4012ZM23.7262 43.005H22.7262V44.005H23.7262V43.005ZM23.7262 40.245V39.245H22.7262V40.245H23.7262ZM22.4962 50.85V49.85H21.4962V50.85H22.4962ZM22.4962 51.87H21.4962V52.87H22.4962V51.87ZM31.8562 51.87V52.87H32.8562V51.87H31.8562ZM31.8562 50.85H32.8562V49.85H31.8562V50.85ZM22.4962 47.985V46.985H21.4962V47.985H22.4962ZM22.4962 51.21H21.4962V52.21H22.4962V51.21ZM23.7262 51.21V52.21H24.7262V51.21H23.7262ZM23.7262 47.985H24.7262V46.985H23.7262V47.985ZM19.9362 45.54V46.56H21.9362V45.54H19.9362ZM20.9362 47.56H33.2212V45.56H20.9362V47.56ZM34.2212 46.56V45.54H32.2212V46.56H34.2212ZM33.2212 44.54H20.9362V46.54H33.2212V44.54ZM25.5462 46.17V49.29H27.5462V46.17H25.5462ZM26.5462 50.29H27.7912V48.29H26.5462V50.29ZM28.7912 49.29V46.17H26.7912V49.29H28.7912ZM27.7912 45.17H26.5462V47.17H27.7912V45.17ZM21.5112 39.24V44.01H23.5112V39.24H21.5112ZM22.5112 45.01H31.6312V43.01H22.5112V45.01ZM32.6312 44.01V39.24H30.6312V44.01H32.6312ZM31.6312 38.24H22.5112V40.24H31.6312V38.24ZM29.4012 40.245V43.005H31.4012V40.245H29.4012ZM30.4012 42.005H23.7262V44.005H30.4012V42.005ZM24.7262 43.005V40.245H22.7262V43.005H24.7262ZM23.7262 41.245H30.4012V39.245H23.7262V41.245ZM21.4962 50.85V51.87H23.4962V50.85H21.4962ZM22.4962 52.87H31.8562V50.87H22.4962V52.87ZM32.8562 51.87V50.85H30.8562V51.87H32.8562ZM31.8562 49.85H22.4962V51.85H31.8562V49.85ZM21.4962 47.985V51.21H23.4962V47.985H21.4962ZM22.4962 52.21H23.7262V50.21H22.4962V52.21ZM24.7262 51.21V47.985H22.7262V51.21H24.7262ZM23.7262 46.985H22.4962V48.985H23.7262V46.985ZM43.93 38.61V37.61H42.93V38.61H43.93ZM43.93 52.17H42.93V53.17H43.93V52.17ZM45.175 52.17V53.17H46.175V52.17H45.175ZM45.175 38.61H46.175V37.61H45.175V38.61ZM44.875 44.175V43.175H43.875V44.175H44.875ZM44.875 45.225H43.875V46.225H44.875V45.225ZM47.395 45.225V46.225H48.395V45.225H47.395ZM47.395 44.175H48.395V43.175H47.395V44.175ZM34.675 40.77V39.77H33.675V40.77H34.675ZM34.675 41.79H33.675V42.79H34.675V41.79ZM42.67 41.79V42.79H43.67V41.79H42.67ZM42.67 40.77H43.67V39.77H42.67V40.77ZM38.08 38.775V37.775H37.08V38.775H38.08ZM38.08 41.235H37.08V42.235H38.08V41.235ZM39.325 41.235V42.235H40.325V41.235H39.325ZM39.325 38.775H40.325V37.775H39.325V38.775ZM42.93 38.61V52.17H44.93V38.61H42.93ZM43.93 53.17H45.175V51.17H43.93V53.17ZM46.175 52.17V38.61H44.175V52.17H46.175ZM45.175 37.61H43.93V39.61H45.175V37.61ZM43.875 44.175V45.225H45.875V44.175H43.875ZM44.875 46.225H47.395V44.225H44.875V46.225ZM48.395 45.225V44.175H46.395V45.225H48.395ZM47.395 43.175H44.875V45.175H47.395V43.175ZM33.675 40.77V41.79H35.675V40.77H33.675ZM34.675 42.79H42.67V40.79H34.675V42.79ZM43.67 41.79V40.77H41.67V41.79H43.67ZM42.67 39.77H34.675V41.77H42.67V39.77ZM38.725 41.915C36.3276 41.915 34.425 43.5946 34.425 46.035H36.425C36.425 44.8154 37.3124 43.915 38.725 43.915V41.915ZM34.425 46.035C34.425 48.4754 36.3276 50.155 38.725 50.155V48.155C37.3124 48.155 36.425 47.2546 36.425 46.035H34.425ZM38.725 50.155C41.1405 50.155 43.025 48.4724 43.025 46.035H41.025C41.025 47.2576 40.1495 48.155 38.725 48.155V50.155ZM43.025 46.035C43.025 43.5976 41.1405 41.915 38.725 41.915V43.915C40.1495 43.915 41.025 44.8124 41.025 46.035H43.025ZM38.725 44.95C39.1037 44.95 39.3731 45.0782 39.5438 45.2455C39.7126 45.4109 39.84 45.6681 39.84 46.035H41.84C41.84 45.1719 41.5249 44.3866 40.9437 43.817C40.3644 43.2493 39.5763 42.95 38.725 42.95V44.95ZM39.84 46.035C39.84 46.6835 39.417 47.12 38.725 47.12V49.12C40.493 49.12 41.84 47.8165 41.84 46.035H39.84ZM38.725 47.12C38.033 47.12 37.61 46.6835 37.61 46.035H35.61C35.61 47.8165 36.957 49.12 38.725 49.12V47.12ZM37.61 46.035C37.61 45.6681 37.7374 45.4109 37.9062 45.2455C38.0769 45.0782 38.3463 44.95 38.725 44.95V42.95C37.8737 42.95 37.0856 43.2493 36.5063 43.817C35.9251 44.3866 35.61 45.1719 35.61 46.035H37.61ZM37.08 38.775V41.235H39.08V38.775H37.08ZM38.08 42.235H39.325V40.235H38.08V42.235ZM40.325 41.235V38.775H38.325V41.235H40.325ZM39.325 37.775H38.08V39.775H39.325V37.775ZM58.4188 38.61V37.61H57.4188V38.61H58.4188ZM58.4188 52.17H57.4188V53.17H58.4188V52.17ZM59.6638 52.17V53.17H60.6638V52.17H59.6638ZM59.6638 38.61H60.6638V37.61H59.6638V38.61ZM54.4438 40.065V39.065H53.4438V40.065H54.4438ZM48.7138 48.645L48.2791 47.7444L47.2518 48.2404L47.878 49.1939L48.7138 48.645ZM49.3738 49.65L48.538 50.1989L49.022 50.936L49.8139 50.548L49.3738 49.65ZM55.6738 40.065H56.6738V39.065H55.6738V40.065ZM49.3288 40.065V39.065H48.3288V40.065H49.3288ZM49.3288 41.085H48.3288V42.085H49.3288V41.085ZM54.9838 41.085V42.085H55.9838V41.085H54.9838ZM54.9838 40.065H55.9838V39.065H54.9838V40.065ZM57.4188 38.61V52.17H59.4188V38.61H57.4188ZM58.4188 53.17H59.6638V51.17H58.4188V53.17ZM60.6638 52.17V38.61H58.6638V52.17H60.6638ZM59.6638 37.61H58.4188V39.61H59.6638V37.61ZM53.4438 40.065V40.275H55.4438V40.065H53.4438ZM53.4438 40.275C53.4438 41.8992 53.0371 43.3206 52.2164 44.5443C51.3922 45.7732 50.112 46.8596 48.2791 47.7444L49.1486 49.5456C51.2307 48.5404 52.8154 47.2418 53.8775 45.6582C54.943 44.0694 55.4438 42.2508 55.4438 40.275H53.4438ZM47.878 49.1939L48.538 50.1989L50.2097 49.1011L49.5497 48.0961L47.878 49.1939ZM49.8139 50.548C52.2194 49.3691 53.9494 47.8377 55.0726 46.0256C56.1953 44.2141 56.6738 42.1833 56.6738 40.065H54.6738C54.6738 41.8767 54.2673 43.5284 53.3726 44.9719C52.4783 46.4148 51.0583 47.7109 48.9338 48.752L49.8139 50.548ZM55.6738 39.065H54.4438V41.065H55.6738V39.065ZM48.3288 40.065V41.085H50.3288V40.065H48.3288ZM49.3288 42.085H54.9838V40.085H49.3288V42.085ZM55.9838 41.085V40.065H53.9838V41.085H55.9838ZM54.9838 39.065H49.3288V41.065H54.9838V39.065Z" fill="white" fill-opacity="0.1"/>
<path d="M34 10V32" stroke="white" stroke-width="2" stroke-linecap="round" stroke-linejoin="round"/>
<path d="M39 14H31.5C30.5717 14 29.6815 14.3687 29.0251 15.0251C28.3687 15.6815 28 16.5717 28 17.5C28 18.4283 28.3687 19.3185 29.0251 19.9749C29.6815 20.6313 30.5717 21 31.5 21H36.5C37.4283 21 38.3185 21.3687 38.9749 22.0251C39.6313 22.6815 40 23.5717 40 24.5C40 25.4283 39.6313 26.3185 38.9749 26.9749C38.3185 27.6313 37.4283 28 36.5 28H28" stroke="white" stroke-width="2" stroke-linecap="round" stroke-linejoin="round"/>
</svg>
