
<svg width="34" height="34" viewBox="0 0 34 34" fill="none" xmlns="http://www.w3.org/2000/svg">
<circle cx="17" cy="17" r="17" fill="#FF679E"/>
<g clip-path="url(#clip0_2173_4185)">
<path d="M17 7.8335V26.1668" stroke="white" stroke-width="2.05639" stroke-linecap="round" stroke-linejoin="round"/>
<path d="M21.1667 11.1667H14.9167C14.1431 11.1667 13.4013 11.474 12.8543 12.021C12.3073 12.568 12 13.3099 12 14.0834C12 14.857 12.3073 15.5988 12.8543 16.1458C13.4013 16.6928 14.1431 17.0001 14.9167 17.0001H19.0833C19.8569 17.0001 20.5987 17.3074 21.1457 17.8544C21.6927 18.4013 22 19.1432 22 19.9167C22 20.6903 21.6927 21.4322 21.1457 21.9791C20.5987 22.5261 19.8569 22.8334 19.0833 22.8334H12" stroke="white" stroke-width="2.05639" stroke-linecap="round" stroke-linejoin="round"/>
</g>
<defs>
<clipPath id="clip0_2173_4185">
<rect width="20" height="20" fill="white" transform="translate(7 7)"/>
</clipPath>
</defs>
</svg>
