<svg width="59" height="20" viewBox="0 0 59 20" fill="none" xmlns="http://www.w3.org/2000/svg">
<rect x="0.5" y="1.5" width="58" height="17.7917" rx="8.89583" fill="#FEE9EE" stroke="#FF679E"/>
<path d="M17.0234 14.125L17.4766 14.1406C17.6016 14.1406 17.6979 14.1354 17.7656 14.125C17.8021 14.1354 18.0443 14.2266 18.4922 14.3984C19.6693 14.8464 20.3646 15.0703 20.5781 15.0703C20.7917 15.0703 21.0312 15.0026 21.2969 14.8672C21.4323 14.8464 21.8125 14.5885 22.4375 14.0938C23.0677 13.5938 23.6276 13.0885 24.1172 12.5781V13.4375C23.9609 13.5781 23.7318 13.7865 23.4297 14.0625C23.1276 14.3333 22.9062 14.5286 22.7656 14.6484C22.6302 14.7682 22.4375 14.9323 22.1875 15.1406C21.9375 15.349 21.7396 15.5026 21.5938 15.6016C21.4479 15.6953 21.263 15.8099 21.0391 15.9453C20.8151 16.0755 20.6172 16.1693 20.4453 16.2266C19.9974 16.3724 19.5781 16.4453 19.1875 16.4453C19.1562 16.4453 19.1042 16.4245 19.0312 16.3828C18.9635 16.3411 18.888 16.2995 18.8047 16.2578C18.7214 16.2161 18.5938 16.1589 18.4219 16.0859C18.25 16.0182 18.0495 15.9427 17.8203 15.8594C17.4141 15.7031 16.6953 15.4661 15.6641 15.1484C15.1901 15.5234 14.7109 15.8333 14.2266 16.0781C13.7474 16.3229 13.3359 16.4453 12.9922 16.4453C12.8724 16.4453 12.7396 16.4115 12.5938 16.3438C12.2969 16.2083 12.1484 15.9818 12.1484 15.6641C12.1484 15.388 12.4661 15.1146 13.1016 14.8438C13.2318 14.7865 13.3125 14.75 13.3438 14.7344L15.3438 13.8203C15.4792 13.6224 15.7734 12.7057 16.2266 11.0703C15.8776 11.1172 15.5469 11.1745 15.2344 11.2422C14.9219 11.3099 14.7318 11.3464 14.6641 11.3516C14.5964 11.3516 14.526 11.3229 14.4531 11.2656C14.3854 11.2083 14.3516 11.1094 14.3516 10.9688C14.3516 10.7344 14.487 10.5833 14.7578 10.5156C15.1068 10.3802 15.6927 10.2292 16.5156 10.0625C17.1146 7.95312 17.599 6.64583 17.9688 6.14062C18.1615 5.86979 18.4349 5.61458 18.7891 5.375C18.263 5.33333 17.724 5.3125 17.1719 5.3125C15.8698 5.3125 14.9115 5.46875 14.2969 5.78125C13.6875 6.09375 13.3828 6.52344 13.3828 7.07031C13.3828 7.36198 13.5156 7.63802 13.7812 7.89844C14.0469 8.15885 14.4245 8.38021 14.9141 8.5625C14.9141 8.74479 14.8906 8.94531 14.8438 9.16406C14.7969 9.3776 14.7448 9.50781 14.6875 9.55469C13.8854 9.27344 13.2734 8.92969 12.8516 8.52344C12.4349 8.11198 12.2266 7.6875 12.2266 7.25C12.2266 6.31771 12.6849 5.56771 13.6016 5C14.5182 4.42708 15.7656 4.14062 17.3438 4.14062H19.6172C22.8516 4.14062 24.4688 4.21094 24.4688 4.35156C24.4688 4.41406 24.4193 4.49479 24.3203 4.59375L23.5391 5.48438C23.2682 5.66667 22.9948 5.75781 22.7188 5.75781C22.4479 5.75781 21.9609 5.70312 21.2578 5.59375C20.5599 5.48438 20.0521 5.42188 19.7344 5.40625C19.6927 5.5625 19.5286 6.17969 19.2422 7.25781C18.9609 8.33073 18.724 9.17448 18.5312 9.78906C19.2083 9.73698 19.8281 9.71094 20.3906 9.71094C20.9531 9.71094 21.5391 9.72656 22.1484 9.75781C22.3411 9.75781 22.4375 9.84115 22.4375 10.0078C22.4375 10.1693 22.3542 10.3359 22.1875 10.5078C22.026 10.6797 21.8464 10.7656 21.6484 10.7656C20.112 10.7656 18.9818 10.7943 18.2578 10.8516V10.8672C17.9922 11.8411 17.4974 12.9323 16.7734 14.1406L17.0234 14.125ZM28.0781 13.9062C28.1719 14.0833 28.224 14.2266 28.2344 14.3359C28.3698 14.3359 28.5339 14.2448 28.7266 14.0625C28.9193 13.8802 29.0729 13.7318 29.1875 13.6172C29.3021 13.4974 29.4714 13.3229 29.6953 13.0938C29.9193 12.8646 30.1094 12.6719 30.2656 12.5156V13.3906C29.4167 14.2708 28.8828 14.7708 28.6641 14.8906C28.4505 15.0104 28.2865 15.0703 28.1719 15.0703C28 15.0703 27.8021 14.8307 27.5781 14.3516C27.151 15.1016 26.8255 15.5677 26.6016 15.75C26.3099 15.9792 26.0417 16.1146 25.7969 16.1562C25.5573 16.2031 25.3255 16.2266 25.1016 16.2266C24.7839 16.2266 24.5078 16.0104 24.2734 15.5781C23.8307 14.7552 23.6094 13.4818 23.6094 11.7578C23.6094 11.1068 23.6432 10.5469 23.7109 10.0781C23.7422 9.82292 24.151 9.69531 24.9375 9.69531H25.5625C25.401 10.5547 25.3203 11.3828 25.3203 12.1797C25.3203 12.9714 25.401 13.6536 25.5625 14.2266C25.7292 14.7995 25.9115 15.0859 26.1094 15.0859C26.2656 15.0859 26.5547 14.7292 26.9766 14.0156C27.1745 13.6823 27.2708 13.5156 27.2656 13.5156C27.2604 13.5104 27.2578 13.375 27.2578 13.1094C27.2578 12.8438 27.2812 12.5 27.3281 12.0781C27.3802 11.6562 27.4557 11.2422 27.5547 10.8359C27.6536 10.4297 27.7891 10.0964 27.9609 9.83594C28.138 9.57031 28.3359 9.4375 28.5547 9.4375C28.8203 9.4375 28.9531 9.69271 28.9531 10.2031C28.9531 10.7083 28.8438 11.3594 28.625 12.1562C28.4062 12.9531 28.224 13.5365 28.0781 13.9062ZM31.625 11.5859C32.0208 12.0964 32.4583 12.3516 32.9375 12.3516C33.2396 12.3516 33.5 12.2031 33.7188 11.9062C33.9427 11.6094 34.0547 11.2969 34.0547 10.9688C34.0547 10.6406 33.9922 10.4219 33.8672 10.3125C33.7474 10.1979 33.5703 10.1406 33.3359 10.1406C33.1068 10.1406 32.8906 10.1927 32.6875 10.2969C32.4896 10.401 32.3203 10.5312 32.1797 10.6875C31.9089 10.9948 31.724 11.2943 31.625 11.5859ZM35.9141 12.5781V13.4375C35.0859 14.349 34.3464 15.0417 33.6953 15.5156C33.0443 15.9896 32.4245 16.2266 31.8359 16.2266C30.6589 16.2266 29.9245 15.8438 29.6328 15.0781C29.5234 14.776 29.4688 14.4115 29.4688 13.9844C29.4688 13.224 29.6276 12.5 29.9453 11.8125C30.263 11.1198 30.7188 10.5521 31.3125 10.1094C31.9115 9.66146 32.5755 9.4375 33.3047 9.4375C34.5339 9.4375 35.1484 9.89583 35.1484 10.8125C35.1484 11.4062 34.9089 11.9245 34.4297 12.3672C33.9505 12.8047 33.4115 13.0234 32.8125 13.0234C32.5729 13.0234 32.3229 12.9531 32.0625 12.8125C31.8021 12.6719 31.5807 12.4609 31.3984 12.1797C31.1745 12.6484 31.0625 13.1068 31.0625 13.5547C31.0625 14.7578 31.5 15.3594 32.375 15.3594C32.6042 15.3594 32.8854 15.25 33.2188 15.0312C33.5573 14.8125 33.8542 14.5833 34.1094 14.3438C34.3698 14.099 34.6979 13.7786 35.0938 13.3828C35.4896 12.9818 35.763 12.7135 35.9141 12.5781ZM42.4609 12.5938V13.4688C41.6328 14.3125 40.8984 14.9844 40.2578 15.4844C39.6224 15.9792 39.1979 16.2266 38.9844 16.2266C38.5938 16.2266 38.3984 16.0078 38.3984 15.5703C38.3984 15.1328 38.4948 14.612 38.6875 14.0078C38.8854 13.3984 39.0807 12.849 39.2734 12.3594C39.4714 11.8646 39.5703 11.5339 39.5703 11.3672C39.5703 11.2005 39.5391 11.0781 39.4766 11C39.4193 10.9219 39.349 10.8828 39.2656 10.8828C38.9688 10.8828 38.6484 11.0911 38.3047 11.5078C37.9609 11.9193 37.6536 12.4193 37.3828 13.0078C36.8203 14.2266 36.4505 15.224 36.2734 16H34.7812C34.7865 15.4375 34.9453 14.5052 35.2578 13.2031C35.5703 11.901 35.849 10.9401 36.0938 10.3203C36.1927 10.0703 36.3333 9.90365 36.5156 9.82031C36.7031 9.73698 36.9531 9.69531 37.2656 9.69531H37.7891C37.4089 11.0078 37.1276 11.9531 36.9453 12.5312C37.2943 11.8802 37.7995 11.2188 38.4609 10.5469C38.7839 10.224 39.1354 9.95833 39.5156 9.75C39.8958 9.54167 40.2552 9.4375 40.5938 9.4375C41.1042 9.4375 41.3594 9.74219 41.3594 10.3516C41.3594 10.6432 41.1745 11.3359 40.8047 12.4297C40.4401 13.5182 40.2578 14.1198 40.2578 14.2344C40.2578 14.3438 40.2891 14.3984 40.3516 14.3984C40.4193 14.3984 40.5052 14.3646 40.6094 14.2969C40.7188 14.224 41.0286 13.9453 41.5391 13.4609C42.0495 12.9714 42.3568 12.6823 42.4609 12.5938ZM42.7422 10.2578C42.6693 10.2578 42.6068 10.2578 42.5547 10.2578C42.5078 10.2578 42.4609 10.2578 42.4141 10.2578C42.3672 10.2526 42.3307 10.2474 42.3047 10.2422C42.2786 10.237 42.2474 10.2292 42.2109 10.2188C42.1797 10.2083 42.1536 10.1953 42.1328 10.1797C42.112 10.1641 42.0911 10.1458 42.0703 10.125C42.0339 10.0833 42.0156 10.0286 42.0156 9.96094C42.0156 9.88802 42.0182 9.84115 42.0234 9.82031C42.0443 9.76823 42.138 9.73177 42.3047 9.71094L42.9609 9.64844C43.2057 8.83594 43.3776 8.32031 43.4766 8.10156C43.5755 7.8776 43.6693 7.67708 43.7578 7.5C43.8516 7.32292 43.9401 7.1849 44.0234 7.08594C44.112 6.98698 44.2135 6.88021 44.3281 6.76562C44.4427 6.65104 44.5625 6.5651 44.6875 6.50781C44.9844 6.3724 45.2891 6.30469 45.6016 6.30469L45.6328 6.33594C45.6328 6.35677 45.5651 6.5599 45.4297 6.94531C44.9818 8.22656 44.6823 9.1276 44.5312 9.64844L46.9141 9.53906L46.7422 9.82031C46.612 10.0599 45.8333 10.1797 44.4062 10.1797C44.401 10.1797 44.3203 10.4688 44.1641 11.0469C43.6953 12.7708 43.4609 13.8151 43.4609 14.1797C43.4609 14.5495 43.5026 14.763 43.5859 14.8203C43.6693 14.8724 43.7552 14.8984 43.8438 14.8984C44.125 14.8984 45.1172 14.0911 46.8203 12.4766V13.3594C46.6432 13.5208 46.3984 13.7474 46.0859 14.0391C45.7734 14.3307 45.526 14.5599 45.3438 14.7266C45.1667 14.888 44.9427 15.0781 44.6719 15.2969C44.4062 15.5156 44.1797 15.6823 43.9922 15.7969C43.513 16.0833 43.0911 16.2266 42.7266 16.2266C42.1068 16.2266 41.7969 15.7943 41.7969 14.9297C41.7969 14.4557 41.8698 13.8984 42.0156 13.2578C42.1667 12.612 42.2943 12.0859 42.3984 11.6797C42.5026 11.2682 42.6172 10.7943 42.7422 10.2578Z" fill="#FF2976"/>
</svg>
