<svg width="40" height="40" viewBox="0 0 40 40" fill="none" xmlns="http://www.w3.org/2000/svg">
<rect x="0.5" y="0.5" width="39" height="39" rx="19.5" stroke="#FF679E"/>
<path d="M28.1017 14.2256C27.6335 13.7571 27.0776 13.3856 26.4657 13.132C25.8539 12.8785 25.1981 12.748 24.5358 12.748C23.8735 12.748 23.2177 12.8785 22.6059 13.132C21.9941 13.3856 21.4382 13.7571 20.97 14.2256L19.9983 15.1972L19.0267 14.2256C18.0809 13.2798 16.7983 12.7485 15.4608 12.7485C14.1234 12.7485 12.8407 13.2798 11.895 14.2256C10.9493 15.1713 10.418 16.4539 10.418 17.7914C10.418 19.1288 10.9493 20.4115 11.895 21.3572L12.8667 22.3289L19.9983 29.4606L27.13 22.3289L28.1017 21.3572C28.5701 20.889 28.9416 20.3331 29.1952 19.7213C29.4487 19.1095 29.5792 18.4537 29.5792 17.7914C29.5792 17.1291 29.4487 16.4733 29.1952 15.8615C28.9416 15.2496 28.5701 14.6937 28.1017 14.2256Z" fill="#FF679E" stroke="#FF679E" stroke-width="2.42857" stroke-linecap="round" stroke-linejoin="round"/>
</svg>
