<svg width="40" height="40" viewBox="0 0 40 40" fill="none" xmlns="http://www.w3.org/2000/svg">
<rect x="0.5" y="0.5" width="39" height="39" rx="19.5" stroke="#FF679E"/>
<path d="M30.375 19.8959C30.3792 21.4907 30.0065 23.064 29.2875 24.4875C28.4349 26.1934 27.1243 27.6282 25.5023 28.6312C23.8804 29.6343 22.0112 30.166 20.1042 30.1667C18.6484 30.1705 17.2105 29.8603 15.8881 29.2593C15.6454 29.149 15.3702 29.1266 15.1173 29.2109L10.5224 30.7426C9.74061 31.0032 8.99687 30.2594 9.25746 29.4777L10.7891 24.8828C10.8734 24.6298 10.851 24.3546 10.7407 24.1119C10.1397 22.7895 9.82954 21.3517 9.83333 19.8959C9.83407 17.9888 10.3657 16.1196 11.3688 14.4977C12.3718 12.8758 13.8066 11.5651 15.5125 10.7125C16.9361 9.99349 18.5093 9.62088 20.1042 9.62503H20.7083C23.2269 9.76398 25.6058 10.827 27.3894 12.6107C29.173 14.3943 30.2361 16.7731 30.375 19.2917V19.8959Z" fill="#FF679E"/>
</svg>
