<svg width="40" height="40" viewBox="0 0 40 40" fill="none" xmlns="http://www.w3.org/2000/svg">
<rect x="0.5" y="0.5" width="39" height="39" rx="19.5" stroke="#FF679E"/>
<path d="M9.98023 30.2841C9.77958 30.1664 9.55886 30.0724 9.38185 29.9243C9.1038 29.6909 9.00634 29.3564 9.00562 29.0001C9.00275 27.1749 9.00419 25.3504 9.0049 23.5251C9.0049 23.4926 9.01565 23.4594 9.0264 23.3987C9.11813 23.4464 9.19338 23.4825 9.26576 23.5237C10.5872 24.2781 11.9431 24.3438 13.2975 23.6559C13.7182 23.4428 14.0908 23.1125 14.4455 22.7917C14.8727 22.4059 15.2575 21.9723 15.6824 21.5373C16.1024 21.9636 16.4937 22.3647 16.8892 22.7614C18.2394 24.1162 20.147 24.4761 21.8612 23.6494C22.2933 23.4413 22.6817 23.1162 23.0451 22.7924C23.4758 22.4095 23.8577 21.9701 24.2805 21.5352C24.7134 21.9738 25.1204 22.3849 25.526 22.7968C26.1574 23.4399 26.8998 23.8814 27.7884 24.0447C28.8347 24.2369 29.8208 24.0685 30.7388 23.5179C30.7911 23.4861 30.8448 23.4565 30.8993 23.4283C30.9129 23.4211 30.9316 23.4254 30.9839 23.4218C30.9839 23.5165 30.9839 23.609 30.9839 23.7007C30.9839 25.3583 30.9602 27.0159 30.9946 28.6728C31.0104 29.4503 30.7796 30.0096 30.0257 30.2841H9.98023Z" fill="#FF679E"/>
<path d="M21.2069 12.9473C21.3309 12.9545 21.4312 12.9646 21.5323 12.9646C23.412 12.9653 25.2917 12.9653 27.1707 12.9653C28.6262 12.9653 29.7491 13.5716 30.5059 14.8339C30.8434 15.3975 30.9946 16.0204 30.9975 16.6743C31.0011 17.3875 31.0068 18.1021 30.9667 18.8139C30.8971 20.0488 29.6753 21.056 28.452 20.9491C27.7977 20.892 27.2681 20.6124 26.8167 20.1543C26.0585 19.3862 25.3017 18.6166 24.4754 17.7763C24.3737 17.6729 24.2096 17.6932 24.1221 17.8088C24.115 17.8182 24.1071 17.8268 24.0992 17.8355C23.3288 18.6166 22.5556 19.3956 21.7781 20.1694C20.9418 21.0011 19.8202 21.1709 18.7962 20.6059C18.5704 20.4816 18.3669 20.3017 18.1827 20.1174C17.4152 19.3508 16.6578 18.5747 15.8817 17.7857C15.7928 17.6953 15.6487 17.6939 15.5577 17.7813C15.5391 17.7994 15.5205 17.8174 15.5026 17.8362C14.7221 18.6202 13.946 19.4078 13.1621 20.1882C12.2956 21.0503 11.1892 21.2143 10.1701 20.608C9.49865 20.2085 9.07871 19.5979 9.04503 18.8067C9.00633 17.902 8.95545 16.9821 9.07226 16.0898C9.31735 14.2212 10.861 12.9747 12.8102 12.9675C14.6899 12.9603 16.5696 12.9661 18.4486 12.9661C18.5504 12.9661 18.6521 12.9661 18.7811 12.9661" fill="#FF679E"/>
<circle cx="20.1551" cy="9.366" r="2.366" fill="#FF679E"/>
</svg>
