<svg width="40" height="40" viewBox="0 0 45 45" fill="none" xmlns="http://www.w3.org/2000/svg">
<circle cx="22.0873" cy="22.0891" r="18.0341" transform="rotate(75 22.0873 22.0891)" fill="#FF679E"/>
<path d="M11 15.002V21.002H17" stroke="white" stroke-width="2" stroke-linecap="round" stroke-linejoin="round"/>
<path d="M13.51 26.0024C14.1584 27.8428 15.3873 29.4226 17.0117 30.5038C18.636 31.585 20.5677 32.109 22.5157 31.9969C24.4637 31.8847 26.3226 31.1426 27.8121 29.8821C29.3017 28.6217 30.3413 26.9114 30.7742 25.0088C31.2072 23.1061 31.0101 21.1143 30.2126 19.3335C29.4152 17.5526 28.0605 16.0792 26.3528 15.1352C24.6451 14.1911 22.6769 13.8277 20.7447 14.0995C18.8125 14.3714 17.0209 15.2638 15.64 16.6424L11 21.0024" stroke="white" stroke-width="2" stroke-linecap="round" stroke-linejoin="round"/>
</svg>
