<svg width="30" height="30" viewBox="0 0 28 28" fill="none" xmlns="http://www.w3.org/2000/svg">
<circle cx="14" cy="14" r="14" fill="#AEAEAE"/>
<path d="M6.5 9H8.16667H21.5" stroke="white" stroke-width="2" stroke-linecap="round" stroke-linejoin="round"/>
<path d="M10.667 9.00008V7.33341C10.667 6.89139 10.8426 6.46746 11.1551 6.1549C11.4677 5.84234 11.8916 5.66675 12.3337 5.66675H15.667C16.109 5.66675 16.5329 5.84234 16.8455 6.1549C17.1581 6.46746 17.3337 6.89139 17.3337 7.33341V9.00008M19.8337 9.00008V20.6667C19.8337 21.1088 19.6581 21.5327 19.3455 21.8453C19.0329 22.1578 18.609 22.3334 18.167 22.3334H9.83366C9.39163 22.3334 8.96771 22.1578 8.65515 21.8453C8.34259 21.5327 8.16699 21.1088 8.16699 20.6667V9.00008H19.8337Z" stroke="white" stroke-width="2" stroke-linecap="round" stroke-linejoin="round"/>
<path d="M15.667 13.1667V18.1667" stroke="white" stroke-width="2" stroke-linecap="round" stroke-linejoin="round"/>
<path d="M12.333 13.1667V18.1667" stroke="white" stroke-width="2" stroke-linecap="round" stroke-linejoin="round"/>
</svg>
