<svg width="381" height="381" viewBox="0 0 381 381" fill="none" xmlns="http://www.w3.org/2000/svg">
<circle cx="190.5" cy="190.5" r="190.5" fill="#FF679E"/>
<path d="M111.03 252.551V256.615H146.332V252.551H111.03ZM105.692 289.369V293.555H155.249V289.369H105.692ZM143.663 252.551V258.01C143.663 264.803 143.663 272.992 141.48 284.213L146.514 284.699C148.576 272.871 148.576 265.046 148.576 258.01V252.551H143.663ZM201.404 246.667V301.622H206.438V246.667H201.404ZM164.646 284.213V288.399H169.195C178.597 288.399 186.846 288.035 196.794 286.397L196.248 282.272C186.543 283.85 178.354 284.213 169.195 284.213H164.646ZM164.524 251.823V255.947H184.784V267.29H164.646V285.791H169.68V271.415H189.879V251.823H164.524ZM257.203 246.728V301.561H262.238V246.728H257.203ZM241.129 252.611V253.461C241.129 268.018 233.79 279.664 217.958 287.307L220.627 291.371C238.945 282.394 246.103 268.503 246.103 252.611H241.129ZM220.445 252.611V256.736H243.313V252.611H220.445Z" fill="white"/>
<path d="M108.044 152.28C108.044 149.168 108.044 146.061 108.044 142.949C108.278 141.006 108.469 139.055 108.749 137.119C111.859 115.735 121.853 98.2527 138.798 84.8753C163.18 65.6329 196.799 62.6069 224.365 77.0319C226.961 78.3911 229.464 79.9294 232.396 81.6079C236.799 77.1877 241.24 72.7325 245.515 68.4408C250.821 73.6476 256.364 78.7377 261.507 84.2054C269.246 92.4344 269.137 105.107 261.495 113.421C260.46 114.551 259.809 115.415 260.646 116.989C261.075 117.795 260.989 118.909 261.005 119.886C261.044 122.943 260.997 126 261.024 129.062C261.047 131.457 261.094 133.836 259.599 135.924C259.385 136.219 259.424 136.718 259.409 137.127C259.117 144.947 258.825 152.767 258.552 160.587C257.914 179.128 257.318 197.674 256.602 216.211C256.536 217.956 255.948 219.786 255.189 221.379C253.577 224.759 250.517 226.348 247.025 227.221C245.99 227.221 244.954 227.221 243.915 227.221C243.576 227.112 243.237 226.987 242.891 226.894C237.791 225.527 234.486 221.484 234.295 216.207C233.844 203.729 233.443 191.248 233.015 178.766C232.575 165.821 232.131 152.872 231.683 139.927C231.656 139.14 231.582 138.354 231.516 137.361C225.17 141.808 220.316 147.186 216.742 153.674C211.53 163.142 209.719 173.244 211.175 183.973C211.888 189.219 213.745 194.071 215.668 198.935C220.553 211.304 212.406 224.829 199.22 226.329C196.705 226.613 194.195 226.921 191.68 227.217C188.779 227.217 185.875 227.217 182.975 227.217C180.927 226.975 178.872 226.765 176.832 226.481C160.969 224.265 146.958 217.921 134.999 207.273C121.144 194.948 112.463 179.639 109.271 161.311C108.749 158.32 108.449 155.291 108.044 152.28ZM225.867 88.7191C225.859 88.7113 225.805 88.6178 225.719 88.5633C206.998 76.9073 186.985 74.0332 166.025 80.829C133.64 91.3362 113.911 122.507 117.991 156.303C120.439 176.562 130.253 192.72 146.701 204.668C161.891 215.701 179 219.588 197.577 217.185C201.906 216.624 205.137 214.568 206.889 210.443C208.334 207.04 207.73 203.776 206.278 200.548C203.284 193.908 201.552 186.929 201.4 179.666C200.964 158.663 209.213 141.824 226.385 129.689C229.254 127.66 230.266 125.74 229.99 122.472C229.819 120.455 230.146 118.352 230.539 116.346C230.729 115.38 230.768 114.835 230.037 114.072C224.964 108.814 222.885 102.525 224.057 95.2929C224.411 93.1198 225.217 91.0246 225.867 88.7191ZM246.114 81.4716C242.455 84.887 238.846 87.7922 235.802 91.2076C231.703 95.8109 232.244 102.895 236.573 107.455C240.617 111.712 247.706 112.417 252.487 109.032C257.688 105.348 259.782 98.2955 256.325 93.1587C253.375 88.7658 249.345 85.0973 246.114 81.4716ZM241.046 139.277C241.046 139.837 241.034 140.25 241.046 140.659C241.894 165.603 242.751 190.547 243.592 215.491C243.634 216.78 244.028 217.839 245.472 217.835C246.916 217.831 247.305 216.776 247.344 215.483C247.457 211.394 247.605 207.305 247.745 203.215C248.466 182.256 249.19 161.296 249.906 140.34C249.918 140.001 249.863 139.658 249.836 139.277C246.885 139.277 244.055 139.277 241.046 139.277ZM239.344 120.638C239.344 123.73 239.344 126.748 239.344 129.786C243.49 129.786 247.539 129.786 251.572 129.786C251.572 126.663 251.572 123.644 251.572 120.638C247.438 120.638 243.424 120.638 239.344 120.638Z" fill="white"/>
<path d="M182.104 91.0296C189.726 91.0841 196.044 97.4359 196.029 105.03C196.013 112.64 189.68 118.976 182.073 118.996C174.419 119.015 167.973 112.531 168.074 104.917C168.171 97.2646 174.524 90.979 182.104 91.0296ZM186.701 105.053C186.725 102.514 184.63 100.384 182.092 100.361C179.554 100.337 177.421 102.433 177.397 104.972C177.374 107.511 179.468 109.641 182.007 109.664C184.545 109.688 186.678 107.593 186.701 105.053Z" fill="white"/>
<path d="M167.113 126.418C167.159 134 160.861 140.364 153.223 140.449C145.604 140.535 139.127 134.082 139.154 126.441C139.185 118.827 145.515 112.499 153.122 112.487C160.713 112.472 167.062 118.796 167.113 126.418ZM157.785 126.414C157.754 123.875 155.613 121.787 153.075 121.818C150.537 121.85 148.446 123.991 148.477 126.527C148.509 129.066 150.65 131.153 153.188 131.122C155.73 131.087 157.817 128.949 157.785 126.414Z" fill="white"/>
<path d="M160.58 163.994C160.378 171.693 153.966 177.936 146.434 177.764C138.745 177.593 132.485 171.194 132.625 163.651C132.769 155.913 139.286 149.569 146.85 149.806C154.574 150.052 160.779 156.462 160.58 163.994ZM146.535 159.133C143.997 159.172 141.914 161.318 141.949 163.853C141.984 166.389 144.133 168.476 146.667 168.441C149.205 168.402 151.288 166.26 151.253 163.721C151.222 161.182 149.073 159.094 146.535 159.133Z" fill="white"/>
<path d="M187.628 189.809C187.422 197.509 181.006 203.751 173.477 203.576C165.785 203.397 159.529 196.998 159.673 189.459C159.821 181.717 166.345 175.377 173.905 175.618C181.633 175.867 187.83 182.277 187.628 189.809ZM178.304 189.576C178.297 187.036 176.175 184.93 173.633 184.941C171.095 184.953 168.989 187.072 168.996 189.611C169.004 192.15 171.13 194.257 173.668 194.245C176.21 194.237 178.316 192.119 178.304 189.576Z" fill="white"/>
</svg>
