<svg width="98" height="98" viewBox="0 0 98 98" fill="none" xmlns="http://www.w3.org/2000/svg">
<rect width="97.102" height="97.102" rx="16.5986" fill="#FF679E"/>
<path d="M23.9862 75.524C23.4935 75.2348 22.9515 75.0041 22.5169 74.6404C21.8341 74.0673 21.5948 73.2458 21.5931 72.3711C21.586 67.8894 21.5896 63.4095 21.5913 58.9278C21.5913 58.8479 21.6177 58.7663 21.6441 58.6173C21.8693 58.7344 22.0541 58.8231 22.2318 58.9242C25.4766 60.7765 28.8058 60.938 32.1315 59.2489C33.1644 58.7255 34.0794 57.9147 34.9504 57.1269C35.9991 56.1795 36.944 55.1149 37.9875 54.0468C39.0186 55.0936 39.9794 56.0783 40.9507 57.0524C44.2658 60.3791 48.9499 61.2626 53.1589 59.2329C54.22 58.7219 55.1737 57.9235 56.0658 57.1287C57.1234 56.1883 58.0613 55.1096 59.0994 54.0415C60.1622 55.1185 61.1617 56.128 62.1577 57.1393C63.7079 58.7184 65.5309 59.8024 67.7128 60.2034C70.2818 60.6754 72.7031 60.262 74.9572 58.91C75.0856 58.8319 75.2176 58.7592 75.3513 58.69C75.3847 58.6723 75.4305 58.6829 75.5589 58.674C75.5589 58.9065 75.5589 59.1336 75.5589 59.3589C75.5589 63.429 75.5009 67.4991 75.5853 71.5674C75.6241 73.4765 75.0574 74.8498 73.2063 75.524H23.9862Z" fill="white"/>
<path d="M51.5512 36.1782C51.8556 36.196 52.102 36.2208 52.3501 36.2208C56.9656 36.2226 61.5811 36.2226 66.1948 36.2226C69.7686 36.2226 72.5259 37.7112 74.3841 40.8108C75.2129 42.1947 75.5841 43.7241 75.5912 45.3297C75.6 47.0809 75.6141 48.8356 75.5155 50.5832C75.3448 53.6154 72.3447 56.0887 69.341 55.8261C67.7345 55.6859 66.4341 54.9993 65.3256 53.8745C63.4639 51.9884 61.6057 50.0989 59.5769 48.0354C59.327 47.7817 58.924 47.8314 58.7094 48.1153C58.6918 48.1384 58.6724 48.1596 58.6531 48.1809C56.7615 50.0989 54.8628 52.0115 52.9536 53.9117C50.9002 55.9539 48.1464 56.3708 45.6319 54.9834C45.0776 54.6782 44.5778 54.2364 44.1256 53.784C42.2411 51.9015 40.3811 49.996 38.4755 48.0585C38.2573 47.8367 37.9036 47.8332 37.6801 48.0479C37.6344 48.0922 37.5886 48.1366 37.5446 48.1827C35.6284 50.1078 33.7227 52.0417 31.7977 53.9578C29.6703 56.0745 26.9535 56.4773 24.4513 54.9887C22.8025 54.0075 21.7714 52.5083 21.6887 50.5655C21.5937 48.3442 21.4687 46.0856 21.7556 43.8944C22.3573 39.3062 26.1476 36.2456 30.9337 36.2279C35.5492 36.2102 40.1647 36.2244 44.7784 36.2244C45.0283 36.2244 45.2782 36.2244 45.5949 36.2244" fill="white"/>
<circle cx="48.9658" cy="27.3876" r="5.80952" fill="white"/>
</svg>
