<svg width="67" height="67" viewBox="0 0 67 67" fill="none" xmlns="http://www.w3.org/2000/svg">
<circle cx="33.5" cy="33.5" r="33.5" fill="#FF679E"/>
<path d="M38.8118 15.5158C39.1196 15.208 39.485 14.9638 39.8872 14.7972C40.2893 14.6307 40.7204 14.5449 41.1557 14.5449C41.591 14.5449 42.022 14.6307 42.4242 14.7972C42.8264 14.9638 43.1918 15.208 43.4996 15.5158C43.8074 15.8236 44.0516 16.189 44.2182 16.5912C44.3847 16.9934 44.4705 17.4244 44.4705 17.8597C44.4705 18.295 44.3847 18.7261 44.2182 19.1282C44.0516 19.5304 43.8074 19.8958 43.4996 20.2036L27.6782 36.025L21.2324 37.783L22.9904 31.3372L38.8118 15.5158Z" stroke="white" stroke-width="2.34391" stroke-linecap="round" stroke-linejoin="round"/>
<path d="M19.7343 43.0673V52.7313H20.6196V43.0673H19.7343ZM13.2703 49.67V50.406H14.0703C15.7236 50.406 17.1743 50.342 18.9236 50.054L18.8276 49.3287C17.121 49.606 15.681 49.67 14.0703 49.67H13.2703ZM13.249 43.974V44.6993H16.8116V46.694H13.2703V49.9473H14.1556V47.4193H17.7076V43.974H13.249ZM24.7148 48.8273V52.7207H25.6001V48.8273H24.7148ZM28.1601 48.8273V52.7207H29.0561V48.8273H28.1601ZM22.5175 48.71V49.4353H31.2641V48.71H22.5175ZM23.6161 43.4513V47.5793H30.1441V43.4513H29.2695V44.742H24.5015V43.4513H23.6161ZM24.5015 45.4673H29.2695V46.8433H24.5015V45.4673ZM37.094 44.07V44.8487C37.094 46.2247 36.134 47.462 34.6727 47.974L35.142 48.6673C36.7527 48.0913 37.8194 46.6193 37.8194 44.8487V44.07H37.094ZM37.254 44.07V44.838C37.254 46.502 38.278 47.9207 39.8674 48.4753L40.326 47.782C38.9074 47.302 37.9794 46.118 37.9794 44.838V44.07H37.254ZM34.95 43.75V44.4753H40.102V43.75H34.95ZM41.318 43.078V48.8807H42.2034V43.078H41.318ZM41.958 45.6167V46.3527H43.6327V45.6167H41.958ZM35.942 49.3927V50.1287H41.318V52.7207H42.2034V49.3927H35.942ZM46.9599 43.622V44.614C46.9599 46.086 45.9999 47.3767 44.5279 47.8993L44.9865 48.6247C46.6399 48.006 47.6959 46.4807 47.6959 44.614V43.622H46.9599ZM47.1199 43.622V44.582C47.1199 46.3313 48.1545 47.75 49.7119 48.3367L50.1919 47.6433C48.7839 47.1527 47.8452 45.9473 47.8452 44.582V43.622H47.1199ZM51.5785 43.078V48.7847H52.4639V43.078H51.5785ZM49.2959 49.062C47.3012 49.062 46.0745 49.734 46.0745 50.886C46.0745 52.038 47.3012 52.6993 49.2959 52.6993C51.2799 52.6993 52.5065 52.038 52.5065 50.886C52.5065 49.734 51.2799 49.062 49.2959 49.062ZM49.2959 49.766C50.7465 49.766 51.6319 50.182 51.6319 50.886C51.6319 51.59 50.7465 52.006 49.2959 52.006C47.8452 52.006 46.9599 51.59 46.9599 50.886C46.9599 50.182 47.8452 49.766 49.2959 49.766ZM49.4879 45.1153V45.8513H51.7705V45.1153H49.4879Z" fill="white"/>
</svg>
