<svg width="28" height="30" viewBox="0 0 28 30" fill="none" xmlns="http://www.w3.org/2000/svg">
<g filter="url(#filter0_d_1533_1576)">
<path d="M22.6714 6.37734V3.375C22.6714 2.96016 22.3362 2.625 21.9214 2.625H6.07765C5.66281 2.625 5.32765 2.96016 5.32765 3.375V6.37734C4.93625 6.40078 4.62453 6.72656 4.62453 7.125V10.2117C4.62303 10.779 4.73789 11.3406 4.96203 11.8617C5.06281 12.1008 5.18703 12.3258 5.32765 12.5391V20.625C5.32765 21.0375 5.66281 21.375 6.07765 21.375H21.9214C22.3362 21.375 22.6714 21.0398 22.6714 20.625V12.5391C22.8142 12.3252 22.9367 12.0985 23.037 11.8617C23.2597 11.3391 23.3745 10.7836 23.3745 10.2117V7.125C23.3745 6.72656 23.0628 6.40078 22.6714 6.37734ZM7.01515 4.3125H20.9839V6.375H7.01515V4.3125ZM15.4995 19.6898H12.4995V17.25H15.4995V19.6898ZM20.9839 19.6898H16.9995V16.5C16.9995 16.0852 16.6644 15.75 16.2495 15.75H11.7495C11.3347 15.75 10.9995 16.0852 10.9995 16.5V19.6898H7.01515V14.0133C7.08312 14.0461 7.15343 14.0789 7.22609 14.107C7.74875 14.3273 8.30421 14.4375 8.87609 14.4375C9.44796 14.4375 10.0011 14.3273 10.5261 14.107C10.8495 13.9711 11.1542 13.7977 11.4331 13.5891C11.4378 13.5867 11.4425 13.5867 11.4472 13.5891C11.727 13.7985 12.0316 13.9725 12.3542 14.107C12.8769 14.3273 13.4323 14.4375 14.0042 14.4375C14.5761 14.4375 15.1292 14.3273 15.6542 14.107C15.9777 13.9711 16.2823 13.7977 16.5612 13.5891C16.5659 13.5867 16.5706 13.5867 16.5753 13.5891C16.8551 13.7985 17.1597 13.9725 17.4823 14.107C18.005 14.3273 18.5605 14.4375 19.1323 14.4375C19.7042 14.4375 20.2573 14.3273 20.7823 14.107C20.8527 14.0766 20.923 14.0461 20.9933 14.0133V19.6898H20.9839ZM21.687 10.2117C21.687 11.6133 20.5386 12.75 19.1253 12.75C18.1691 12.75 17.3347 12.232 16.8941 11.4633C16.8261 11.3461 16.7042 11.2734 16.5683 11.2734H16.5542C16.4206 11.2734 16.2964 11.3461 16.2284 11.4633C16.0036 11.8554 15.6789 12.1811 15.2874 12.4071C14.8959 12.6331 14.4516 12.7514 13.9995 12.75C13.0456 12.75 12.2136 12.2344 11.773 11.468C11.7027 11.3484 11.5761 11.2734 11.4378 11.2734C11.2995 11.2734 11.1706 11.3484 11.1027 11.468C10.8765 11.8586 10.5514 12.1828 10.1601 12.4079C9.76881 12.6329 9.32514 12.7509 8.87375 12.75C7.46046 12.75 6.31203 11.6133 6.31203 10.2117V8.07422C6.31203 8.06719 6.31671 8.0625 6.32375 8.0625H21.6753C21.6823 8.0625 21.687 8.06719 21.687 8.07422V10.2117V10.2117Z" fill="#262626"/>
</g>
<defs>
<filter id="filter0_d_1533_1576" x="-2" y="0" width="32" height="32" filterUnits="userSpaceOnUse" color-interpolation-filters="sRGB">
<feFlood flood-opacity="0" result="BackgroundImageFix"/>
<feColorMatrix in="SourceAlpha" type="matrix" values="0 0 0 0 0 0 0 0 0 0 0 0 0 0 0 0 0 0 127 0" result="hardAlpha"/>
<feOffset dy="4"/>
<feGaussianBlur stdDeviation="2"/>
<feComposite in2="hardAlpha" operator="out"/>
<feColorMatrix type="matrix" values="0 0 0 0 0 0 0 0 0 0 0 0 0 0 0 0 0 0 0.25 0"/>
<feBlend mode="normal" in2="BackgroundImageFix" result="effect1_dropShadow_1533_1576"/>
<feBlend mode="normal" in="SourceGraphic" in2="effect1_dropShadow_1533_1576" result="shape"/>
</filter>
</defs>
</svg>
