<svg width="77" height="77" viewBox="0 0 77 77" fill="none" xmlns="http://www.w3.org/2000/svg">
<g filter="url(#filter0_d_862_3370)">
<circle cx="38.5" cy="34.5" r="33.5" fill="#FF679E"/>
</g>
<path d="M43.8118 16.5158C44.1196 16.208 44.485 15.9638 44.8872 15.7972C45.2893 15.6307 45.7204 15.5449 46.1557 15.5449C46.591 15.5449 47.022 15.6307 47.4242 15.7972C47.8264 15.9638 48.1918 16.208 48.4996 16.5158C48.8074 16.8236 49.0516 17.189 49.2182 17.5912C49.3847 17.9934 49.4705 18.4244 49.4705 18.8597C49.4705 19.295 49.3847 19.7261 49.2182 20.1282C49.0516 20.5304 48.8074 20.8958 48.4996 21.2036L32.6782 37.025L26.2324 38.783L27.9904 32.3372L43.8118 16.5158Z" stroke="white" stroke-width="2.34391" stroke-linecap="round" stroke-linejoin="round"/>
<path d="M24.9239 44.4833V45.198H31.1319V44.4833H24.9239ZM23.8146 47.662V48.3873H32.5506V47.662H23.8146ZM30.5559 44.4833V45.102C30.5559 45.7847 30.5559 46.6167 30.2999 47.79L31.1639 47.886C31.4199 46.6913 31.4199 45.7953 31.4199 45.102V44.4833H30.5559ZM24.8386 49.3367V50.0513H30.5773V51.1073H24.8599V53.134H25.7453V51.79H31.4519V49.3367H24.8386ZM24.8599 52.8993V53.614H31.6973V52.8993H24.8599ZM35.9951 45.07V45.8487C35.9951 47.2247 35.0351 48.462 33.5738 48.974L34.0431 49.6673C35.6538 49.0913 36.7204 47.6193 36.7204 45.8487V45.07H35.9951ZM36.1551 45.07V45.838C36.1551 47.502 37.1791 48.9207 38.7684 49.4753L39.2271 48.782C37.8084 48.302 36.8804 47.118 36.8804 45.838V45.07H36.1551ZM33.8511 44.75V45.4753H39.0031V44.75H33.8511ZM40.2191 44.078V49.8807H41.1044V44.078H40.2191ZM40.8591 46.6167V47.3527H42.5338V46.6167H40.8591ZM34.8431 50.3927V51.1287H40.2191V53.7207H41.1044V50.3927H34.8431ZM45.8609 44.622V45.614C45.8609 47.086 44.9009 48.3767 43.4289 48.8993L43.8876 49.6247C45.5409 49.006 46.5969 47.4807 46.5969 45.614V44.622H45.8609ZM46.0209 44.622V45.582C46.0209 47.3313 47.0556 48.75 48.6129 49.3367L49.0929 48.6433C47.6849 48.1527 46.7463 46.9473 46.7463 45.582V44.622H46.0209ZM50.4796 44.078V49.7847H51.3649V44.078H50.4796ZM48.1969 50.062C46.2023 50.062 44.9756 50.734 44.9756 51.886C44.9756 53.038 46.2023 53.6993 48.1969 53.6993C50.1809 53.6993 51.4076 53.038 51.4076 51.886C51.4076 50.734 50.1809 50.062 48.1969 50.062ZM48.1969 50.766C49.6476 50.766 50.5329 51.182 50.5329 51.886C50.5329 52.59 49.6476 53.006 48.1969 53.006C46.7463 53.006 45.8609 52.59 45.8609 51.886C45.8609 51.182 46.7463 50.766 48.1969 50.766ZM48.3889 46.1153V46.8513H50.6716V46.1153H48.3889Z" fill="white"/>
<defs>
<filter id="filter0_d_862_3370" x="0" y="0" width="77" height="77" filterUnits="userSpaceOnUse" color-interpolation-filters="sRGB">
<feFlood flood-opacity="0" result="BackgroundImageFix"/>
<feColorMatrix in="SourceAlpha" type="matrix" values="0 0 0 0 0 0 0 0 0 0 0 0 0 0 0 0 0 0 127 0" result="hardAlpha"/>
<feMorphology radius="1" operator="dilate" in="SourceAlpha" result="effect1_dropShadow_862_3370"/>
<feOffset dy="4"/>
<feGaussianBlur stdDeviation="2"/>
<feComposite in2="hardAlpha" operator="out"/>
<feColorMatrix type="matrix" values="0 0 0 0 0 0 0 0 0 0 0 0 0 0 0 0 0 0 0.1 0"/>
<feBlend mode="normal" in2="BackgroundImageFix" result="effect1_dropShadow_862_3370"/>
<feBlend mode="normal" in="SourceGraphic" in2="effect1_dropShadow_862_3370" result="shape"/>
</filter>
</defs>
</svg>
