<svg width="33" height="53" viewBox="0 0 39 53" fill="none" xmlns="http://www.w3.org/2000/svg">
<path d="M29.6663 16V29.3333H8.33301V16" stroke="#A0A0A0" stroke-width="1.5" stroke-linecap="round" stroke-linejoin="round"/>
<path d="M32.3337 9.3335H5.66699V16.0002H32.3337V9.3335Z" stroke="#A0A0A0" stroke-width="1.5" stroke-linecap="round" stroke-linejoin="round"/>
<path d="M19 29.3335V9.3335" stroke="#A0A0A0" stroke-width="1.5" stroke-linecap="round" stroke-linejoin="round"/>
<path d="M19 9.33317H25C25.8841 9.33317 26.7319 8.98198 27.357 8.35686C27.9821 7.73174 28.3333 6.88389 28.3333 5.99984C28.3333 5.11578 27.9821 4.26794 27.357 3.64281C26.7319 3.01769 25.8841 2.6665 25 2.6665C20.3333 2.6665 19 9.33317 19 9.33317Z" stroke="#A0A0A0" stroke-width="1.5" stroke-linecap="round" stroke-linejoin="round"/>
<path d="M19.0003 9.33317H13.0003C12.1163 9.33317 11.2684 8.98198 10.6433 8.35686C10.0182 7.73174 9.66699 6.88389 9.66699 5.99984C9.66699 5.11578 10.0182 4.26794 10.6433 3.64281C11.2684 3.01769 12.1163 2.6665 13.0003 2.6665C17.667 2.6665 19.0003 9.33317 19.0003 9.33317Z" stroke="#A0A0A0" stroke-width="1.5" stroke-linecap="round" stroke-linejoin="round"/>
<path d="M5.30564 38.934V39.116C5.30564 42.112 4.33964 44.786 0.937641 46.634L1.59564 47.474C5.41764 45.332 6.39764 42.21 6.39764 38.934H5.30564ZM1.55364 38.934V39.886H5.73964V38.934H1.55364ZM5.16564 41.86L0.923641 42.14L1.10564 43.148L5.16564 42.728V41.86ZM5.41764 42.434V43.372H8.32964V42.434H5.41764ZM10.5136 37.436V50.092H11.6336V37.436H10.5136ZM7.89564 37.758V49.448H8.98764V37.758H7.89564ZM22.9445 37.422V50.106H24.1065V37.422H22.9445ZM17.4285 38.402C15.5665 38.402 14.2225 40.124 14.2225 42.812C14.2225 45.514 15.5665 47.236 17.4285 47.236C19.3045 47.236 20.6485 45.514 20.6485 42.812C20.6485 40.124 19.3045 38.402 17.4285 38.402ZM17.4285 39.452C18.6745 39.452 19.5285 40.768 19.5285 42.812C19.5285 44.87 18.6745 46.214 17.4285 46.214C16.1965 46.214 15.3285 44.87 15.3285 42.812C15.3285 40.768 16.1965 39.452 17.4285 39.452ZM27.9975 38.724V39.676H36.0335V38.724H27.9975ZM26.6395 47.362V48.342H38.0775V47.362H26.6395ZM35.5295 38.724V40.278C35.5295 42.098 35.5295 43.904 34.9835 46.34L36.1315 46.452C36.6635 43.862 36.6635 42.14 36.6635 40.278V38.724H35.5295ZM35.8235 42.224L27.6615 42.56L27.8295 43.526L35.8235 43.092V42.224Z" fill="#A0A0A0"/>
</svg>
