<svg width="28" height="53" viewBox="0 0 32 53" fill="none" xmlns="http://www.w3.org/2000/svg">
<path d="M14.667 5.3335H5.33366C4.62641 5.3335 3.94814 5.61445 3.44804 6.11454C2.94794 6.61464 2.66699 7.29292 2.66699 8.00016V26.6668C2.66699 27.3741 2.94794 28.0524 3.44804 28.5524C3.94814 29.0525 4.62641 29.3335 5.33366 29.3335H24.0003C24.7076 29.3335 25.3858 29.0525 25.8859 28.5524C26.386 28.0524 26.667 27.3741 26.667 26.6668V17.3335" stroke="#ff679e" stroke-width="1.5" stroke-linecap="round" stroke-linejoin="round"/>
<path d="M24.667 3.33331C25.1974 2.80288 25.9168 2.50488 26.667 2.50488C27.4171 2.50488 28.1366 2.80288 28.667 3.33331C29.1974 3.86374 29.4954 4.58316 29.4954 5.33331C29.4954 6.08346 29.1974 6.80288 28.667 7.33331L16.0003 20L10.667 21.3333L12.0003 16L24.667 3.33331Z" stroke="#ff679e" stroke-width="1.5" stroke-linecap="round" stroke-linejoin="round"/>
<path d="M8.12109 47.502V44.282H11.9431V43.358H4.45309V39.424H11.8171V38.486H3.30509V44.282H6.95909V47.502H1.84909V48.454H13.2591V47.502H8.12109ZM16.1 41.454C16.1 40.222 17.024 39.354 18.256 39.354C19.488 39.354 20.412 40.222 20.412 41.454C20.412 42.686 19.488 43.554 18.256 43.554C17.024 43.554 16.1 42.686 16.1 41.454ZM21.532 41.454C21.532 39.634 20.132 38.36 18.256 38.36C16.38 38.36 14.98 39.634 14.98 41.454C14.98 43.274 16.38 44.548 18.256 44.548C20.132 44.548 21.532 43.274 21.532 41.454ZM17.822 45.78H16.674V49.756H25.046V48.818H17.822V45.78ZM24.486 41.3V37.478H23.338V46.718H24.486V42.252H26.334V41.3H24.486Z" fill="#ff679e"/>
</svg>
