<svg width="32" height="53" viewBox="0 0 32 53" fill="none" xmlns="http://www.w3.org/2000/svg">
<path d="M4 11.9998L16 2.6665L28 11.9998V26.6665C28 27.3737 27.719 28.052 27.219 28.5521C26.7189 29.0522 26.0406 29.3332 25.3333 29.3332H6.66667C5.95942 29.3332 5.28115 29.0522 4.78105 28.5521C4.28095 28.052 4 27.3737 4 26.6665V11.9998Z" stroke="#DADADA" stroke-width="1.5" stroke-linecap="round" stroke-linejoin="round"/>
<path d="M12 29.3333V16H20V29.3333" stroke="#DADADA" stroke-width="1.5" stroke-linecap="round" stroke-linejoin="round"/>
<path d="M12.0765 46.312V50.008H20.8545V46.312H12.0765ZM19.4265 47.418V48.902H13.5185V47.418H19.4265ZM11.2785 38.346V39.48H21.6245V38.346H11.2785ZM16.4725 39.9C13.7845 39.9 12.2725 40.516 12.2725 41.72C12.2725 42.91 13.7845 43.526 16.4725 43.526C19.1605 43.526 20.6725 42.91 20.6725 41.72C20.6725 40.516 19.1605 39.9 16.4725 39.9ZM16.4725 40.908C18.2085 40.908 19.1045 41.174 19.1045 41.72C19.1045 42.252 18.2085 42.532 16.4725 42.532C14.7505 42.532 13.8405 42.252 13.8405 41.72C13.8405 41.174 14.7505 40.908 16.4725 40.908ZM15.7445 37.226V39.116H17.2005V37.226H15.7445ZM10.6905 44.338V45.486H22.2545V44.338H10.6905ZM15.7445 43.176V44.954H17.2005V43.176H15.7445Z" fill="#DADADA"/>
</svg>
