<svg width="39" height="53" viewBox="0 0 39 53" fill="none" xmlns="http://www.w3.org/2000/svg">
<path d="M29.6663 28V25.3333C29.6663 23.9188 29.1044 22.5623 28.1042 21.5621C27.104 20.5619 25.7475 20 24.333 20H13.6663C12.2519 20 10.8953 20.5619 9.8951 21.5621C8.89491 22.5623 8.33301 23.9188 8.33301 25.3333V28" stroke="#DADADA" stroke-width="1.5" stroke-linecap="round" stroke-linejoin="round"/>
<path d="M19.0003 14.6667C21.9458 14.6667 24.3337 12.2789 24.3337 9.33333C24.3337 6.38781 21.9458 4 19.0003 4C16.0548 4 13.667 6.38781 13.667 9.33333C13.667 12.2789 16.0548 14.6667 19.0003 14.6667Z" stroke="#DADADA" stroke-width="1.5" stroke-linecap="round" stroke-linejoin="round"/>
<path d="M2.68764 39.004H1.53964V46.774H2.33764C3.69564 46.774 5.13764 46.704 6.83164 46.382L6.71964 45.388C5.22164 45.682 3.89164 45.766 2.68764 45.78V39.004ZM10.4716 37.478V42.588H8.69364V37.758H7.61564V49.392H8.69364V43.54H10.4716V50.022H11.5776V37.478H10.4716ZM20.5085 40.74V41.678H22.9865V44.968H24.1485V37.492H22.9865V40.74H20.5085ZM21.2085 43.596C19.3885 42.952 18.1565 41.37 18.1565 39.76V39.326H20.9145V38.402H14.2085V39.326H17.0085V39.76C17.0085 41.566 15.7205 43.26 13.8445 43.946L14.4465 44.856C15.9165 44.296 17.0785 43.12 17.6105 41.664C18.1565 42.952 19.2345 43.988 20.6345 44.492L21.2085 43.596ZM20.0045 49.14C18.1145 49.14 16.9665 48.608 16.9665 47.698C16.9665 46.788 18.1145 46.242 20.0045 46.242C21.8945 46.242 23.0425 46.788 23.0425 47.698C23.0425 48.608 21.8945 49.14 20.0045 49.14ZM20.0045 45.36C17.4285 45.36 15.8185 46.214 15.8185 47.698C15.8185 49.182 17.4285 50.036 20.0045 50.036C22.5805 50.036 24.1905 49.182 24.1905 47.698C24.1905 46.214 22.5805 45.36 20.0045 45.36ZM29.1595 41.552H35.5715V43.862H29.1595V41.552ZM32.9395 47.488V44.786H36.6915V38.374H35.5715V40.614H29.1595V38.374H28.0255V44.786H31.7775V47.488H26.6815V48.426H38.0635V47.488H32.9395Z" fill="#DADADA"/>
</svg>
